<?xml version="1.0" encoding="UTF-8" standalone="no"?>
<svg width="901px" height="439px" viewBox="0 0 901 439" version="1.1" xmlns="http://www.w3.org/2000/svg" xmlns:xlink="http://www.w3.org/1999/xlink" xmlns:sketch="http://www.bohemiancoding.com/sketch/ns">
    <!-- Generator: Sketch 3.4.2 (15855) - http://www.bohemiancoding.com/sketch -->
    <title>Group</title>
    <desc>Created with Sketch.</desc>
    <defs></defs>
    <g id="Page-1" stroke="none" stroke-width="1" fill="none" fill-rule="evenodd" sketch:type="MSPage">
        <g id="404v2" sketch:type="MSLayerGroup" transform="translate(-1244.000000, 0.000000)">
            <g id="image-server" transform="translate(1244.000000, 0.000000)" sketch:type="MSShapeGroup">
                <g id="Group">
                    <path d="M585.449729,380.832397 C585.449729,410.887931 561.084503,435.237025 530.967049,435.237025 L367.512955,435.237025 C337.383391,435.237025 313,410.887931 313,380.832397 L313,54.4046281 C313,24.3732734 337.383391,0 367.512955,0 L530.967049,0 C561.084503,0 585.449729,24.3732734 585.449729,54.4046281 L585.449729,380.832397 L585.449729,380.832397 Z M509.605092,129.204947 L388.868857,129.204947 C377.061653,129.204947 367.512955,120.064969 367.512955,108.797166 C367.512955,97.5535431 377.067708,88.3893858 388.868857,88.3893858 L509.605092,88.3893858 C521.369911,88.3893858 530.967049,97.5595881 530.967049,108.803211 C530.967049,120.071014 521.369911,129.210992 509.605092,129.210992 L509.605092,129.204947 Z M509.605092,74.8003187 L388.868857,74.8003187 C377.061653,74.8003187 367.512955,65.684521 367.512955,54.3985831 C367.512955,43.1307802 377.067708,33.9908026 388.868857,33.9908026 L509.605092,33.9908026 C521.369911,33.9908026 530.967049,43.1307802 530.967049,54.3985831 C530.967049,65.684521 521.369911,74.8063636 509.605092,74.8063636 L509.605092,74.8003187 Z M509.605092,183.609575 L388.868857,183.609575 C377.061653,183.609575 367.512955,174.481687 367.512955,163.213884 C367.512955,151.940036 377.067708,142.812149 388.868857,142.812149 L509.605092,142.812149 C521.369911,142.812149 530.967049,151.940036 530.967049,163.207839 C530.967049,174.475642 521.369911,183.59144 509.605092,183.59144 L509.605092,183.609575 Z M455.464548,265.63689 C458.002207,267.970795 459.272065,270.782184 459.272065,274.075171 C459.272065,278.055571 457.967219,281.5873 455.361642,284.674476 C452.756066,287.761652 449.876759,290.883816 446.721665,294.03891 C444.525654,296.234921 442.399619,298.49885 440.341502,300.830697 C438.283384,303.164603 436.46195,305.667273 434.88749,308.342826 C433.306856,311.018378 432.036998,313.899743 431.079973,316.986919 C430.116774,320.074095 429.639291,323.539965 429.639291,327.380412 C429.639291,328.615282 429.670163,330.090952 429.742197,331.805364 C429.810115,333.521834 429.978881,335.065422 430.256726,336.436128 L457.423876,336.436128 C457.285982,335.612881 457.218064,334.653798 457.218064,333.554764 L457.218064,331.085023 C457.218064,328.753176 457.691431,326.454259 458.658746,324.19033 C459.615771,321.926401 460.819769,319.765377 462.260452,317.70726 C463.701134,315.649143 465.310582,313.693931 467.097027,311.841625 C468.877299,309.98932 470.595827,308.23992 472.242321,306.593426 C474.432158,304.401531 476.698145,302.065568 479.034108,299.595827 C481.363897,297.126086 483.422014,294.52051 485.20846,291.774981 C486.988732,289.03151 488.46646,286.04724 489.633413,282.82217 C490.796249,279.599159 491.382812,276.065371 491.382812,272.222866 C491.382812,268.382419 490.730389,264.334102 489.427601,260.079973 C488.120696,255.829961 485.825896,251.919538 482.532908,248.348704 C479.23992,244.781987 474.742933,241.832705 469.052239,239.4988 C463.351254,237.166953 456.116971,236 447.339101,236 C440.341502,236 433.20395,236.926153 425.93468,238.778458 C418.659235,240.630764 412.351105,243.273387 407,246.70221 L415.644093,269.958937 C420.995198,267.215466 425.862646,265.225267 430.256726,263.990396 C434.646691,262.755526 439.312443,262.138091 444.251925,262.138091 C449.191406,262.138091 452.924831,263.307101 455.468664,265.63689 L455.464548,265.63689 Z M458.415349,351.939482 C454.504926,348.646494 450.079973,347 445.140492,347 C440.20101,347 435.776058,348.646494 431.865635,351.939482 C427.955212,355.23247 426,359.898222 426,365.93468 C426,371.973196 427.955212,376.63689 431.865635,379.929878 C435.776058,383.222866 440.205126,384.86936 445.140492,384.86936 C450.075857,384.86936 454.504926,383.222866 458.415349,379.929878 C462.325772,376.63689 464.280983,371.973196 464.280983,365.93468 C464.280983,359.898222 462.325772,355.23247 458.415349,351.939482 L458.415349,351.939482 Z" id="Shape" fill="#DD4814"></path>
                    <path d="M274.350611,384.125 C274.350611,414.440389 249.815389,439 219.487806,439 L54.8932917,439 C24.5535139,439 1.39266376e-12,414.440389 1.39266376e-12,384.125 L1.39266376e-12,54.875 C1.39266376e-12,24.584 24.5535139,8.52651283e-14 54.8932917,8.52651283e-14 L219.487806,8.52651283e-14 C249.815389,8.52651283e-14 274.350611,24.584 274.350611,54.875 L274.350611,384.125 L274.350611,384.125 Z M197.976806,130.322028 L76.3981944,130.322028 C64.5086111,130.322028 54.8932917,121.103028 54.8932917,109.737806 C54.8932917,98.3969722 64.5147083,89.1535833 76.3981944,89.1535833 L197.976806,89.1535833 C209.823708,89.1535833 219.487806,98.4030694 219.487806,109.743903 C219.487806,121.109125 209.823708,130.328125 197.976806,130.328125 L197.976806,130.322028 Z M197.976806,75.4470278 L76.3981944,75.4470278 C64.5086111,75.4470278 54.8932917,66.2524167 54.8932917,54.8689028 C54.8932917,43.5036806 64.5147083,34.2846806 76.3981944,34.2846806 L197.976806,34.2846806 C209.823708,34.2846806 219.487806,43.5036806 219.487806,54.8689028 C219.487806,66.2524167 209.823708,75.453125 197.976806,75.453125 L197.976806,75.4470278 Z M197.976806,185.197028 L76.3981944,185.197028 C64.5086111,185.197028 54.8932917,175.990222 54.8932917,164.625 C54.8932917,153.253681 64.5147083,144.046875 76.3981944,144.046875 L197.976806,144.046875 C209.823708,144.046875 219.487806,153.253681 219.487806,164.618903 C219.487806,175.984125 209.823708,185.178736 197.976806,185.178736 L197.976806,185.197028 Z M109.713417,329.25 C109.713417,344.407694 97.4458056,356.675306 82.2759167,356.675306 C67.1548056,356.675306 54.8871944,344.407694 54.8871944,329.256097 C54.8871944,314.116694 67.1548056,301.818597 82.2820139,301.818597 C97.4458056,301.818597 109.719514,314.122792 109.719514,329.256097 L109.713417,329.25 Z" id="Shape" fill="#888888"></path>
                    <path d="M900.350611,384.125 C900.350611,414.440389 875.815389,439 845.487806,439 L680.893292,439 C650.553514,439 626,414.440389 626,384.125 L626,54.875 C626,24.584 650.553514,8.52651283e-14 680.893292,8.52651283e-14 L845.487806,8.52651283e-14 C875.815389,8.52651283e-14 900.350611,24.584 900.350611,54.875 L900.350611,384.125 L900.350611,384.125 Z M823.976806,130.322028 L702.398194,130.322028 C690.508611,130.322028 680.893292,121.103028 680.893292,109.737806 C680.893292,98.3969722 690.514708,89.1535833 702.398194,89.1535833 L823.976806,89.1535833 C835.823708,89.1535833 845.487806,98.4030694 845.487806,109.743903 C845.487806,121.109125 835.823708,130.328125 823.976806,130.328125 L823.976806,130.322028 Z M823.976806,75.4470278 L702.398194,75.4470278 C690.508611,75.4470278 680.893292,66.2524167 680.893292,54.8689028 C680.893292,43.5036806 690.514708,34.2846806 702.398194,34.2846806 L823.976806,34.2846806 C835.823708,34.2846806 845.487806,43.5036806 845.487806,54.8689028 C845.487806,66.2524167 835.823708,75.453125 823.976806,75.453125 L823.976806,75.4470278 Z M823.976806,185.197028 L702.398194,185.197028 C690.508611,185.197028 680.893292,175.990222 680.893292,164.625 C680.893292,153.253681 690.514708,144.046875 702.398194,144.046875 L823.976806,144.046875 C835.823708,144.046875 845.487806,153.253681 845.487806,164.618903 C845.487806,175.984125 835.823708,185.178736 823.976806,185.178736 L823.976806,185.197028 Z M735.713417,329.25 C735.713417,344.407694 723.445806,356.675306 708.275917,356.675306 C693.154806,356.675306 680.887194,344.407694 680.887194,329.256097 C680.887194,314.116694 693.154806,301.818597 708.282014,301.818597 C723.445806,301.818597 735.719514,314.122792 735.719514,329.256097 L735.713417,329.25 Z" id="Shape" fill="#888888"></path>
                </g>
            </g>
        </g>
    </g>
</svg>