<?xml version="1.0" encoding="UTF-8" standalone="no"?>
<!-- Created with Inkscape (http://www.inkscape.org/) -->

<svg
   xmlns:dc="http://purl.org/dc/elements/1.1/"
   xmlns:cc="http://creativecommons.org/ns#"
   xmlns:rdf="http://www.w3.org/1999/02/22-rdf-syntax-ns#"
   xmlns:svg="http://www.w3.org/2000/svg"
   xmlns="http://www.w3.org/2000/svg"
   xmlns:sodipodi="http://sodipodi.sourceforge.net/DTD/sodipodi-0.dtd"
   xmlns:inkscape="http://www.inkscape.org/namespaces/inkscape"
   width="80"
   height="80"
   viewBox="0 0 80.000001 80.000001"
   id="svg2"
   version="1.1"
   inkscape:version="0.91+devel r"
   sodipodi:docname="speed03a.svg">
  <defs
     id="defs4" />
  <sodipodi:namedview
     id="base"
     pagecolor="#ffffff"
     bordercolor="#666666"
     borderopacity="1.0"
     inkscape:pageopacity="0.0"
     inkscape:pageshadow="2"
     inkscape:zoom="3.8146972"
     inkscape:cx="-15.391638"
     inkscape:cy="9.4634493"
     inkscape:document-units="px"
     inkscape:current-layer="layer1"
     showgrid="true"
     borderlayer="false"
     inkscape:showpageshadow="false"
     inkscape:snap-bbox="true"
     inkscape:bbox-paths="true"
     inkscape:bbox-nodes="true"
     inkscape:snap-bbox-edge-midpoints="true"
     inkscape:snap-bbox-midpoints="true"
     inkscape:object-paths="true"
     inkscape:snap-intersection-paths="true"
     inkscape:object-nodes="true"
     inkscape:snap-smooth-nodes="true"
     inkscape:snap-midpoints="true"
     inkscape:snap-page="true"
     inkscape:snap-center="true"
     inkscape:snap-object-midpoints="true"
     fit-margin-top="0"
     fit-margin-left="0"
     fit-margin-right="0"
     fit-margin-bottom="0"
     inkscape:snap-global="true">
    <inkscape:grid
       type="xygrid"
       id="grid4183"
       originx="0px"
       originy="-6.9039734e-05px" />
  </sodipodi:namedview>
  <metadata
     id="metadata7">
    <rdf:RDF>
      <cc:Work
         rdf:about="">
        <dc:format>image/svg+xml</dc:format>
        <dc:type
           rdf:resource="http://purl.org/dc/dcmitype/StillImage" />
        <dc:title></dc:title>
      </cc:Work>
    </rdf:RDF>
  </metadata>
  <g
     inkscape:label="Layer 1"
     inkscape:groupmode="layer"
     id="layer1"
     transform="translate(0,-275.83332)">
    <circle
       style="color:#000000;display:inline;overflow:visible;visibility:visible;opacity:1;fill:#dd4814;fill-opacity:1;fill-rule:nonzero;stroke:none;stroke-width:3.20000005;stroke-linecap:round;stroke-linejoin:round;stroke-miterlimit:4;stroke-dasharray:none;stroke-dashoffset:0;stroke-opacity:1;marker:none;enable-background:accumulate"
       id="path4162"
       cx="40"
       cy="315.83334"
       r="40"
       d="m 80,315.83334 a 40,40 0 0 1 -40,40 40,40 0 0 1 -40,-40 40,40 0 0 1 40,-40 40,40 0 0 1 40,40 z" />
    <path
       style="color:#000000;font-style:normal;font-variant:normal;font-weight:normal;font-stretch:normal;font-size:medium;line-height:normal;font-family:sans-serif;text-indent:0;text-align:start;text-decoration:none;text-decoration-line:none;text-decoration-style:solid;text-decoration-color:#000000;letter-spacing:normal;word-spacing:normal;text-transform:none;direction:ltr;block-progression:tb;writing-mode:lr-tb;baseline-shift:baseline;text-anchor:start;white-space:normal;clip-rule:nonzero;display:inline;overflow:visible;visibility:visible;opacity:1;isolation:auto;mix-blend-mode:normal;color-interpolation:sRGB;color-interpolation-filters:linearRGB;solid-color:#000000;solid-opacity:1;fill:#ffffff;fill-opacity:1;fill-rule:nonzero;stroke:none;stroke-width:4;stroke-linecap:round;stroke-linejoin:round;stroke-miterlimit:4;stroke-dasharray:none;stroke-dashoffset:0;stroke-opacity:1;marker:none;color-rendering:auto;image-rendering:auto;shape-rendering:auto;text-rendering:auto;enable-background:accumulate"
       d="m 40,291.83335 c -13.237578,0 -24.000002,10.70759 -23.999999,23.89218 a 1.20012,1.20012 0 0 0 0,0.002 c 0.01134,7.52966 3.58969,14.61496 9.65039,19.11563 a 1.20012,1.20012 0 0 0 0.714844,0.23672 l 27.276561,0 a 1.20012,1.20012 0 0 0 0.716016,-0.23672 c 6.057611,-4.50244 9.632785,-11.58741 9.642187,-19.11562 a 1.20012,1.20012 0 0 0 0,-0.002 C 64.000002,302.54094 53.237578,291.83335 40,291.83335 Z m 0,2.4 c 11.946208,0 21.599356,9.61014 21.599999,21.49101 -0.0083,6.65442 -3.139696,12.89466 -8.423437,16.95586 l -26.347265,0 c -5.285782,-4.05952 -8.418911,-10.2997 -8.429296,-16.95469 l 0,-10e-4 C 18.400643,303.84349 28.053792,294.23335 40,294.23335 Z m 0.0012,2.40703 c -0.40085,0 -0.800918,0.0173 -1.201172,0.0422 l -2.8e-5,4.75078 2.4,0 0,-4.75078 c -0.399037,-0.0248 -0.799147,-0.0422 -1.198828,-0.0422 z m -12.69375,4.80234 c -0.299683,0.26464 -0.595116,0.53535 -0.877734,0.81797 -0.283437,0.28344 -0.554902,0.57945 -0.820312,0.88008 l 3.359765,3.35859 1.696875,-1.69687 -3.358594,-3.35977 z m 25.385156,0 -3.358593,3.35977 1.696875,1.69687 1.671093,-1.67109 c 2.383692,2.74273 3.81124,6.18274 4.071065,9.80508 l -2.373046,0 0,2.4 2.373046,0 c -0.259603,3.62277 -1.687117,7.06205 -4.071093,9.80507 l -1.671094,-1.67109 -1.696875,1.69688 3.358594,3.35976 c 0.299684,-0.26464 0.595116,-0.53535 0.877734,-0.81797 0.0041,-0.004 0.0076,-0.009 0.01172,-0.0129 l 0.01172,0.0117 c 3.602436,-3.59886 5.627345,-8.48144 5.627345,-13.57148 0,-5.09004 -2.024909,-9.97262 -5.627343,-13.57149 l -0.01172,0.0117 c -0.0033,-0.003 -0.0061,-0.007 -0.0094,-0.0105 -0.283444,-0.28344 -0.57945,-0.5549 -0.880079,-0.82031 z m -3.696093,5.66016 c -5.85966,2.71115 -10.338153,5.53546 -11.602735,6.76406 -1.280477,1.24406 -1.310183,3.29166 -0.06562,4.57266 1.244548,1.28101 3.29215,1.31087 4.572657,0.0668 1.264579,-1.22859 4.216579,-5.62453 7.095703,-11.40351 z m -9.326953,7.4625 c 0.414746,0.006 0.82713,0.1711 1.139062,0.49218 0.623891,0.64214 0.610283,1.66741 -0.03164,2.29102 -0.641887,0.62392 -1.668331,0.60935 -2.292188,-0.0328 -0.623872,-0.64215 -0.609112,-1.66857 0.03281,-2.29219 0.32095,-0.31196 0.737206,-0.46425 1.151953,-0.4582 z m -18.820341,0.068 c -0.02478,0.39903 -0.04219,0.79914 -0.04219,1.19882 2e-6,0.40085 0.01729,0.80093 0.04219,1.20118 l 4.750781,0 0,-2.4 -4.750781,0 z m 8.119922,10.53398 -3.359766,3.35977 c 0.26464,0.29968 0.535351,0.59394 0.817969,0.87656 0.283444,0.28344 0.579449,0.5549 0.880078,0.82031 l 3.358594,-3.35976 -1.696875,-1.69688 z"
       id="path4162-5"
       inkscape:connector-curvature="0"
       inkscape:transform-center-y="-2.3767705" />
  </g>
</svg>
