<?xml version="1.0" encoding="UTF-8" standalone="no"?>
<!-- Created with Inkscape (http://www.inkscape.org/) -->

<svg
   xmlns:dc="http://purl.org/dc/elements/1.1/"
   xmlns:cc="http://creativecommons.org/ns#"
   xmlns:rdf="http://www.w3.org/1999/02/22-rdf-syntax-ns#"
   xmlns:svg="http://www.w3.org/2000/svg"
   xmlns="http://www.w3.org/2000/svg"
   xmlns:sodipodi="http://sodipodi.sourceforge.net/DTD/sodipodi-0.dtd"
   xmlns:inkscape="http://www.inkscape.org/namespaces/inkscape"
   width="80"
   height="80"
   viewBox="0 0 80.000001 80.000001"
   id="svg2"
   version="1.1"
   inkscape:version="0.91+devel r"
   sodipodi:docname="expertise04a.svg">
  <defs
     id="defs4" />
  <sodipodi:namedview
     id="base"
     pagecolor="#ffffff"
     bordercolor="#666666"
     borderopacity="1.0"
     inkscape:pageopacity="0.0"
     inkscape:pageshadow="2"
     inkscape:zoom="5.9604644"
     inkscape:cx="9.4934823"
     inkscape:cy="28.16059"
     inkscape:document-units="px"
     inkscape:current-layer="layer1"
     showgrid="true"
     borderlayer="false"
     inkscape:showpageshadow="false"
     inkscape:snap-bbox="true"
     inkscape:bbox-paths="true"
     inkscape:bbox-nodes="true"
     inkscape:snap-bbox-edge-midpoints="true"
     inkscape:snap-bbox-midpoints="true"
     inkscape:object-paths="true"
     inkscape:snap-intersection-paths="true"
     inkscape:object-nodes="true"
     inkscape:snap-smooth-nodes="true"
     inkscape:snap-midpoints="true"
     inkscape:snap-page="true"
     inkscape:snap-center="true"
     inkscape:snap-object-midpoints="true"
     fit-margin-top="0"
     fit-margin-left="0"
     fit-margin-right="0"
     fit-margin-bottom="0"
     inkscape:snap-global="true">
    <inkscape:grid
       type="xygrid"
       id="grid4183"
       originx="0px"
       originy="-6.9039734e-05px" />
  </sodipodi:namedview>
  <metadata
     id="metadata7">
    <rdf:RDF>
      <cc:Work
         rdf:about="">
        <dc:format>image/svg+xml</dc:format>
        <dc:type
           rdf:resource="http://purl.org/dc/dcmitype/StillImage" />
        <dc:title></dc:title>
      </cc:Work>
    </rdf:RDF>
  </metadata>
  <g
     inkscape:label="Layer 1"
     inkscape:groupmode="layer"
     id="layer1"
     transform="translate(0,-275.83332)">
    <circle
       style="color:#000000;display:inline;overflow:visible;visibility:visible;opacity:1;fill:#dd4814;fill-opacity:1;fill-rule:nonzero;stroke:none;stroke-width:3.20000005;stroke-linecap:round;stroke-linejoin:round;stroke-miterlimit:4;stroke-dasharray:none;stroke-dashoffset:0;stroke-opacity:1;marker:none;enable-background:accumulate"
       id="path4162"
       cx="40"
       cy="315.83334"
       r="40"
       d="m 80,315.83334 a 40,40 0 0 1 -40,40 40,40 0 0 1 -40,-40 40,40 0 0 1 40,-40 40,40 0 0 1 40,40 z" />
    <path
       style="color:#000000;font-style:normal;font-variant:normal;font-weight:normal;font-stretch:normal;font-size:medium;line-height:normal;font-family:sans-serif;text-indent:0;text-align:start;text-decoration:none;text-decoration-line:none;text-decoration-style:solid;text-decoration-color:#000000;letter-spacing:normal;word-spacing:normal;text-transform:none;direction:ltr;block-progression:tb;writing-mode:lr-tb;baseline-shift:baseline;text-anchor:start;white-space:normal;clip-rule:nonzero;display:inline;overflow:visible;visibility:visible;opacity:1;isolation:auto;mix-blend-mode:normal;color-interpolation:sRGB;color-interpolation-filters:linearRGB;solid-color:#000000;solid-opacity:1;fill:#ffffff;fill-opacity:1;fill-rule:nonzero;stroke:none;stroke-width:4;stroke-linecap:butt;stroke-linejoin:miter;stroke-miterlimit:4;stroke-dasharray:none;stroke-dashoffset:0;stroke-opacity:1;marker:none;color-rendering:auto;image-rendering:auto;shape-rendering:auto;text-rendering:auto;enable-background:accumulate"
       d="m 34.781033,291.8367 c -0.996987,0.0256 -1.989813,0.22406 -2.900088,0.61455 -0.664128,0.2849 -1.24788,0.72612 -1.744816,1.26604 l -0.07027,-0.0691 c -0.27966,0.28487 -0.510698,0.59261 -0.705072,0.91231 -5.373036,0.59609 -8.592348,3.28804 -10.05205,6.4183 -1.428096,3.06248 -1.358171,6.30037 -0.831318,8.55496 -4.181117,7.10599 -1.812742,15.2207 3.854079,17.73877 -0.452199,2.55316 0.520136,4.83539 2.061623,6.29087 1.473949,1.3917 3.303542,2.19541 5.048654,2.18787 0.815941,1.68445 2.436951,2.94232 4.316188,3.59682 1.963212,0.68376 4.291928,0.72126 6.242037,-0.40375 1.950109,1.12501 4.278825,1.08751 6.242037,0.40375 1.831218,-0.63777 3.411084,-1.85171 4.245919,-3.47176 l 0.05598,0.025 c 0.0234,-0.0515 0.03675,-0.10128 0.05836,-0.15245 1.731862,-0.006 3.542989,-0.80545 5.004587,-2.18549 1.137188,-1.07374 1.960018,-2.59906 2.134274,-4.34954 l 0.150066,0 c 0,-0.53043 -0.05718,-1.02915 -0.159594,-1.49947 -0.01681,-0.14608 -0.03691,-0.29385 -0.06312,-0.44186 5.66682,-2.51807 8.035196,-10.63278 3.85408,-17.73877 0.297127,-1.27151 0.436339,-2.85927 0.256066,-4.54843 -9.27e-4,-0.0165 -1.82e-4,-0.0323 -0.0012,-0.0488 l -0.0036,0 c -0.142544,-1.29124 -0.46768,-2.63899 -1.082619,-3.9577 -1.471458,-3.15547 -4.728138,-5.86827 -10.179487,-6.43498 -0.593744,-0.93253 -1.414003,-1.67273 -2.392722,-2.09259 -1.2137,-0.52065 -2.574779,-0.70066 -3.895764,-0.58359 -1.320985,0.11707 -2.616788,0.52946 -3.656373,1.33869 -0.202553,0.15767 -0.389946,0.33904 -0.566917,0.53118 -0.176972,-0.19214 -0.364365,-0.37351 -0.566917,-0.53118 -1.039585,-0.80923 -2.335388,-1.22162 -3.656373,-1.33869 -0.330247,-0.0293 -0.663348,-0.0395 -0.995677,-0.031 z m 0.0667,2.44036 c 0.238249,-0.007 0.477869,-6.3e-4 0.71341,0.0202 0.942161,0.0835 1.813718,0.39784 2.373665,0.83371 0.559946,0.43586 0.845611,0.91063 0.845611,1.68169 l 0,3.44795 c -0.07266,-0.01 -0.115288,-0.0212 -0.198898,-0.0298 -0.503763,-0.0516 -1.196702,-0.0657 -1.95205,0.0822 -1.510698,0.29577 -3.383724,1.369 -4.373357,3.76714 l 2.254566,0.93017 c 0.701366,-1.6996 1.674288,-2.12569 2.588045,-2.30459 0.913757,-0.17889 1.655492,0.0167 1.655492,0.0167 l 0.0262,-0.0953 0,25.35046 c -0.0089,0.14602 -0.0095,0.23462 -0.0095,0.23462 l 0.0095,0 0,8.56926 c -1.232269,0.7153 -2.779456,0.76482 -4.219717,0.26321 -1.090513,-0.37981 -2.017148,-1.06077 -2.595192,-1.7865 1.370035,-0.56101 3.014697,-1.65906 4.029157,-3.81359 l -1.185046,-0.55739 0.0036,-0.0131 c -0.06709,-0.022 -0.134231,-0.0539 -0.20128,-0.0798 l -0.589545,-0.2775 c -1.018276,-0.56902 -1.969839,-1.55666 -2.573754,-2.79528 l -2.192633,1.06833 c 0.714566,1.46557 1.778745,2.6975 3.053728,3.54085 -0.455668,0.36925 -0.913646,0.60456 -1.330349,0.76224 l -1.02307,0.21795 c -0.77876,0.16569 -2.646187,-0.3478 -3.888618,-1.52091 -1.242431,-1.1731 -1.963489,-2.71338 -1.231496,-4.82117 l 0.416851,-1.20172 -1.218394,-0.36564 c -4.365944,-1.3129 -7.002386,-7.52564 -4.036303,-13.63815 0.668,0.88812 1.467156,1.67677 2.370093,2.32126 -0.755813,0.92119 -1.174403,2.06064 -1.165991,3.2157 0.01432,1.96648 1.303184,3.95658 3.636127,4.79974 l 0.828936,-2.29387 c -1.515585,-0.54776 -2.019853,-1.53088 -2.027084,-2.52373 -0.0054,-0.73528 0.301427,-1.47582 0.93851,-2.00803 0.07324,0.0279 0.145095,0.0585 0.219143,0.0846 3.000973,1.05582 6.6763,0.40983 9.738817,-2.78337 l -1.7603,-1.68884 c -2.538869,2.64721 -4.981623,2.94064 -7.168635,2.17119 -2.187014,-0.76944 -4.101313,-2.8079 -4.918835,-5.082 l -0.0262,0.01 c -0.197619,-1.71659 -0.06394,-4.00297 0.856329,-5.97644 1.055333,-2.26311 3.008574,-4.23931 6.967357,-4.93075 -0.03194,0.18446 -0.07014,0.37531 -0.0929,0.54905 -0.162323,1.23946 -0.08932,2.25338 -0.08932,2.25338 l 2.433215,-0.17151 c 0,0 -0.0535,-0.78364 0.07503,-1.76506 0.112463,-0.85875 0.397406,-1.79509 0.809881,-2.36533 0.0038,-0.005 0.0081,-0.009 0.01191,-0.0143 0.286854,-0.35056 0.685514,-0.64731 1.208866,-0.87181 0.58286,-0.25004 1.289708,-0.39433 2.004455,-0.41566 z m 10.304542,0 c 0.714747,0.0213 1.421595,0.16562 2.004455,0.41566 0.777146,0.33338 1.30311,0.81325 1.549492,1.41729 l 0.287031,0.70388 0.757477,0.0524 c 5.164347,0.35968 7.528514,2.56614 8.730039,5.14275 0.492236,1.05557 0.752284,2.19941 0.864666,3.30026 0.08705,2.42072 -0.82738,3.83428 -2.266475,4.81284 -1.034075,0.70315 -2.388921,1.12042 -3.789765,1.27318 -0.271851,-1.44427 -0.943249,-2.88554 -1.983017,-4.28999 l -1.960388,1.45183 c 1.15115,1.5549 1.635826,2.95302 1.64239,4.26021 0.0066,1.30719 -0.459112,2.58869 -1.47565,3.93269 l 1.944904,1.47208 c 1.028703,-1.36008 1.689409,-2.83519 1.894883,-4.37217 1.794906,-0.15978 3.58671,-0.68417 5.097485,-1.71147 0.43635,-0.29671 0.841675,-0.64336 1.21244,-1.03141 3.338681,6.03686 1.048958,12.34342 -3.107322,14.07883 -0.493945,-0.63356 -1.092111,-1.14962 -1.740053,-1.5352 -1.708395,-1.01665 -3.6856,-1.30296 -5.316629,-1.30296 l 0,2.43917 c 1.317697,0 2.928465,0.28084 4.069651,0.95995 1.068182,0.63567 1.778642,1.48779 1.866299,3.12995 -0.08535,1.17377 -0.670508,2.12823 -1.501853,2.91319 -0.856121,0.80835 -2.002791,1.29652 -2.891751,1.47208 -0.148386,-2.28215 -1.709087,-3.84932 -1.709087,-3.84932 l -1.672165,1.77698 c 0,0 1.603766,1.35931 0.731275,3.53131 -0.4873,0.91172 -1.593586,1.85078 -2.951301,2.32365 -1.440262,0.50161 -2.987449,0.45209 -4.219717,-0.26321 l 0,-8.68002 c 0.004,-0.12399 0.03129,-0.69541 0.353727,-1.37322 0.359087,-0.75491 0.903323,-1.47236 2.499912,-1.65907 l -0.283458,-2.4225 c -1.037115,0.12128 -1.883298,0.47454 -2.570181,0.93375 l 0,-26.76775 c 0,-0.77106 0.285665,-1.24583 0.845611,-1.68169 0.559946,-0.43587 1.431503,-0.75021 2.373665,-0.83371 0.23554,-0.0209 0.475161,-0.0274 0.71341,-0.0202 z m 3.584913,6.34208 c -1.003725,0.012 -1.97647,0.31812 -2.785751,0.87658 -1.618564,1.11691 -2.540615,3.30134 -1.927041,5.70489 l 2.362947,-0.60265 c -0.398605,-1.56145 0.132029,-2.53148 0.949228,-3.09541 0.817199,-0.56392 1.960709,-0.6666 3.023951,0.0357 l 1.344641,-2.03542 c -0.930012,-0.61432 -1.96425,-0.89574 -2.967975,-0.88372 z"
       id="path4163"
       inkscape:connector-curvature="0" />
  </g>
</svg>
