<?xml version="1.0" encoding="utf-8"?>
<!-- Generator: Adobe Illustrator 16.0.4, SVG Export Plug-In . SVG Version: 6.00 Build 0)  -->
<!DOCTYPE svg PUBLIC "-//W3C//DTD SVG 1.1//EN" "http://www.w3.org/Graphics/SVG/1.1/DTD/svg11.dtd">
<svg version="1.1" id="Layer_1" xmlns:sketch="http://www.bohemiancoding.com/sketch/ns"
	 xmlns="http://www.w3.org/2000/svg" xmlns:xlink="http://www.w3.org/1999/xlink" x="0px" y="0px" width="86.175px"
	 height="86.177px" viewBox="0.858 0.05 86.175 86.177" enable-background="new 0.858 0.05 86.175 86.177" xml:space="preserve">
<title>Untitled 2 copy</title>
<desc>Created with Sketch.</desc>
<g sketch:type="MSLayerGroup">
	<path sketch:type="MSShapeGroup" fill="#DD4813" d="M87.033,43.139c0,23.797-19.291,43.088-43.087,43.088
		c-23.796,0-43.088-19.291-43.088-43.088S20.15,0.05,43.946,0.05C67.742,0.05,87.033,19.342,87.033,43.139"/>
	<path sketch:type="MSShapeGroup" fill="#FFFFFF" d="M22.398,23.381c-1.983-0.027-3.614,1.557-3.641,3.539
		c-0.029,1.984,1.556,3.614,3.539,3.643h43.188c1.986,0.028,3.615-1.558,3.643-3.541c0.027-1.981-1.557-3.612-3.54-3.641H22.398"/>
	<path sketch:type="MSShapeGroup" fill="#FFFFFF" d="M22.398,34.152c-1.983-0.027-3.614,1.558-3.641,3.539
		c-0.029,1.985,1.556,3.615,3.539,3.643h43.188c1.986,0.027,3.615-1.557,3.643-3.54c0.027-1.981-1.557-3.612-3.54-3.642H22.398"/>
	<path sketch:type="MSShapeGroup" fill="#FFFFFF" d="M22.398,44.925c-1.983-0.028-3.614,1.556-3.641,3.54
		c-0.029,1.983,1.556,3.613,3.539,3.641h43.188c1.986,0.028,3.615-1.556,3.643-3.539c0.027-1.981-1.557-3.612-3.54-3.642H22.398"/>
	<path sketch:type="MSShapeGroup" fill="#FFFFFF" d="M22.398,55.697c-1.983-0.029-3.614,1.557-3.641,3.539
		c-0.029,1.984,1.556,3.613,3.539,3.642h43.188c1.986,0.028,3.615-1.558,3.643-3.54c0.027-1.984-1.557-3.613-3.54-3.641H22.398"/>
</g>
</svg>
