<?xml version="1.0" encoding="utf-8"?>
<!-- Generator: Adobe Illustrator 16.0.4, SVG Export Plug-In . SVG Version: 6.00 Build 0)  -->
<!DOCTYPE svg PUBLIC "-//W3C//DTD SVG 1.1//EN" "http://www.w3.org/Graphics/SVG/1.1/DTD/svg11.dtd">
<svg version="1.1"
	 id="svg5918" xmlns:dc="http://purl.org/dc/elements/1.1/" xmlns:cc="http://creativecommons.org/ns#" xmlns:rdf="http://www.w3.org/1999/02/22-rdf-syntax-ns#" xmlns:svg="http://www.w3.org/2000/svg" xmlns:sodipodi="http://sodipodi.sourceforge.net/DTD/sodipodi-0.dtd" xmlns:inkscape="http://www.inkscape.org/namespaces/inkscape" sodipodi:docname="external-link-dark.svg" inkscape:version="0.91+devel r"
	 xmlns="http://www.w3.org/2000/svg" xmlns:xlink="http://www.w3.org/1999/xlink" x="0px" y="0px" width="16px" height="16px"
	 viewBox="0 0 16 16" enable-background="new 0 0 16 16" xml:space="preserve">
<sodipodi:namedview  id="base" pagecolor="#dedede" bordercolor="#666666" borderopacity="1.0" inkscape:zoom="16" inkscape:cx="-8.32194" inkscape:cy="14.470406" showgrid="true" fit-margin-top="0" fit-margin-left="0" inkscape:pageshadow="2" fit-margin-right="0" inkscape:pageopacity="0" inkscape:document-units="px" inkscape:current-layer="g5346" fit-margin-bottom="0.2" inkscape:snap-bbox="true" inkscape:bbox-paths="true" inkscape:bbox-nodes="true" inkscape:snap-bbox-midpoints="true" inkscape:object-paths="true" inkscape:object-nodes="true" inkscape:snap-smooth-nodes="true" inkscape:snap-midpoints="true" inkscape:snap-object-midpoints="true" inkscape:snap-center="true" inkscape:window-maximized="1" inkscape:window-width="1391" inkscape:window-height="876" inkscape:window-x="49" inkscape:window-y="24" inkscape:snap-bbox-edge-midpoints="true" inkscape:snap-intersection-paths="true">
	<inkscape:grid  type="xygrid" originx="-0.00011296354px" originy="-8.999973px" id="grid4137"></inkscape:grid>
</sodipodi:namedview>
<g id="layer1" transform="translate(-182.93849,-560.7201)" inkscape:label="Layer 1" inkscape:groupmode="layer">
	<g id="g5687" transform="matrix(0.66666607,0,0,0.66666668,-633.06096,6.8119427)">
	</g>
	<g id="g5346" transform="translate(-769.06151,404.35792)">
		<g id="g4845" transform="matrix(0.66666668,0,0,0.66666668,930.66666,4.120726)">
			<rect id="rect4847" x="32" y="228.362" fill="none" width="24" height="24"/>
			
				<path id="path4849" sodipodi:nodetypes="ccsssccc" inkscape:transform-center-y="-19.579935" inkscape:transform-center-x="19.651678" inkscape:connector-curvature="0" fill="#333333" d="
				M44.867,231.458c0,0,5.44-2.156,11.127-3.11c0.003,0.001,0.003,0.001,0.003,0.003c0,0.001,0,0.003,0,0.005
				c0,0.001,0,0.003,0,0.004C56,228.362,56,228.363,56,228.364c-1.061,5.947-3.12,11.109-3.12,11.109L44.867,231.458z"/>
			
				<path id="path4851" inkscape:connector-curvature="0" fill="none" stroke="#333333" stroke-width="3" stroke-linejoin="round" d="
				M43.801,240.548l6.668-6.667"/>
			<path id="path4853" sodipodi:nodetypes="ssssssccssssssccs" inkscape:connector-curvature="0" fill="#333333" d="M34.25,231.361
				c-1.233,0-2.25,1.017-2.25,2.25v16.5c0,1.233,1.017,2.25,2.25,2.25h16.5c1.233,0,2.25-1.017,2.25-2.25v-8.25h-3v6.75
				c0,0.429-0.322,0.75-0.75,0.75h-13.5c-0.428,0-0.75-0.321-0.75-0.75v-13.5c0-0.428,0.322-0.75,0.75-0.75h6.75v-3H34.25z"/>
		</g>
	</g>
</g>
</svg>
