<?xml version="1.0" encoding="utf-8"?>
<!-- Generator: Adobe Illustrator 16.0.4, SVG Export Plug-In . SVG Version: 6.00 Build 0)  -->
<!DOCTYPE svg PUBLIC "-//W3C//DTD SVG 1.1//EN" "http://www.w3.org/Graphics/SVG/1.1/DTD/svg11.dtd">
<svg version="1.1" id="Layer_1" xmlns="http://www.w3.org/2000/svg" xmlns:xlink="http://www.w3.org/1999/xlink" x="0px" y="0px"
	 width="29.52px" height="29.521px" viewBox="35.24 1.64 29.52 29.521" enable-background="new 35.24 1.64 29.52 29.521"
	 xml:space="preserve">
<path fill="#FFFFFF" d="M50,1.64c-8.15,0-14.76,6.609-14.76,14.759c0,8.152,6.608,14.762,14.76,14.762s14.76-6.609,14.76-14.762
	C64.76,8.249,58.152,1.64,50,1.64z M50,29.193c-7.064,0-12.792-5.729-12.792-12.794c0-7.062,5.728-12.792,12.792-12.792
	c7.065,0,12.792,5.729,12.792,12.792C62.792,23.465,57.066,29.193,50,29.193z"/>
<path fill="#FFFFFF" d="M46.078,10.168c0-0.723,0.515-1.023,1.145-0.67l11.16,6.26c0.629,0.353,0.629,0.931,0,1.284l-11.16,6.261
	c-0.629,0.354-1.145,0.051-1.145-0.671V10.168z"/>
</svg>
