<?xml version="1.0" encoding="utf-8"?>
<!-- Generator: Adobe Illustrator 19.1.0, SVG Export Plug-In . SVG Version: 6.00 Build 0)  -->
<svg version="1.1"
	 id="svg8" inkscape:export-ydpi="96" inkscape:export-xdpi="96" inkscape:export-filename="Autopilot.png" sodipodi:docname="Autopilot.svg" inkscape:version="0.91+devel r" xmlns:cc="http://creativecommons.org/ns#" xmlns:dc="http://purl.org/dc/elements/1.1/" xmlns:rdf="http://www.w3.org/1999/02/22-rdf-syntax-ns#" xmlns:svg="http://www.w3.org/2000/svg" xmlns:sodipodi="http://sodipodi.sourceforge.net/DTD/sodipodi-0.dtd" xmlns:inkscape="http://www.inkscape.org/namespaces/inkscape"
	 xmlns="http://www.w3.org/2000/svg" xmlns:xlink="http://www.w3.org/1999/xlink" x="0px" y="0px" viewBox="95.7 648.1 374.8 252.5"
	 style="enable-background:new 95.7 648.1 374.8 252.5;" xml:space="preserve">
<style type="text/css">
	.st0{opacity:0.5;}
	.st1{fill:#FFFFFF;}
	.st2{fill:#DD4814;}
	.st3{display:none;}
	.st4{display:inline;fill:url(#rect4710_1_);}
	.st5{display:inline;}
	.st6{clip-path:url(#SVGID_2_);filter:url(#filter4779);}
	.st7{fill:url(#circle4732_2_);}
	.st8{fill:url(#path4722_2_);}
	
		.st9{display:inline;fill:#FFFFFF;fill-opacity:5.882353e-02;stroke:#FFFFFF;stroke-width:0.5292;stroke-opacity:0.5882;stroke-dasharray:0.5292,1.5875;}
	.st10{display:inline;fill:#FFFFFF;fill-opacity:0.1176;stroke:#FFFFFF;stroke-width:0.2646;stroke-opacity:0.3922;}
	.st11{display:inline;fill:#FFFFFF;}
	.st12{enable-background:new    ;}
	.st13{display:inline;opacity:0.52;fill:#FFFFFF;enable-background:new    ;}
</style>
<filter  inkscape:collect="always" style="color-interpolation-filters:sRGB" id="filter4779" y="-0.16089824" x="-0.095679514" height="1.3217965" width="1.191359">
	<feGaussianBlur  inkscape:collect="always" id="feGaussianBlur4781" stdDeviation="20.891283"></feGaussianBlur>
</filter>
<sodipodi:namedview  inkscape:object-nodes="true" inkscape:snap-nodes="true" inkscape:snap-others="true" fit-margin-bottom="0" fit-margin-right="0" inkscape:snap-center="true" inkscape:snap-object-midpoints="true" inkscape:snap-midpoints="false" inkscape:snap-smooth-nodes="false" inkscape:snap-global="true" inkscape:object-paths="true" inkscape:snap-bbox-midpoints="true" inkscape:bbox-nodes="true" inkscape:bbox-paths="true" inkscape:snap-bbox="true" inkscape:current-layer="layer1" inkscape:pageshadow="2" inkscape:pageopacity="0.0" inkscape:document-units="px" units="px" fit-margin-top="0" id="base" inkscape:cy="112.81876" pagecolor="#ffffff" bordercolor="#666666" inkscape:zoom="12.434497" showborder="true" inkscape:cx="147.43007" showguides="false" borderopacity="1.0" fit-margin-left="0" showgrid="true" inkscape:snap-intersection-paths="true" inkscape:snap-bbox-edge-midpoints="true">
	<inkscape:grid  type="xygrid" id="grid4613" originx="0" originy="0"></inkscape:grid>
</sodipodi:namedview>
<g id="g5262" transform="matrix(0.49903799,0,0,0.49855396,1853.3945,320.74665)" class="st0">
</g>
<path id="path5239" inkscape:connector-curvature="0" sodipodi:nodetypes="cccccccccccc" inkscape:export-ydpi="191.98756" inkscape:export-xdpi="191.98756" inkscape:export-filename="Run Time Diagram.png" class="st1" d="
	M311.4,648.1c-30,0-57.4,16.6-71.3,43.2c-9.2-8.2-21-12.7-33.3-12.7c-27.7,0-50.1,22.4-50.1,50.1c0,4.4,0.6,8.8,1.7,13
	c-36.7,8.3-62.7,40.9-62.8,78.4c0,44.5,36.1,80.5,80.6,80.5h213.6c44.5,0,80.6-36.1,80.6-80.5c0-43.9-35.3-79.7-79.3-80.5
	c0.5-3.6,0.8-7.3,0.8-11C392,684.2,355.9,648.1,311.4,648.1L311.4,648.1z"/>
<path class="st2" d="M338,797.4c0,30.9-25,55.9-55.9,55.9s-55.9-25-55.9-55.9c0-30.9,25-55.9,55.9-55.9S338,766.5,338,797.4z"/>
<path class="st1" d="M244.1,789.9c-4.1,0-7.5,3.3-7.5,7.5c0,4.1,3.3,7.5,7.5,7.5c4.1,0,7.5-3.3,7.5-7.5
	C251.5,793.3,248.2,789.9,244.1,789.9z M297.4,823.8c-3.6,2.1-4.8,6.6-2.7,10.2c2.1,3.6,6.6,4.8,10.2,2.7c3.6-2.1,4.8-6.6,2.7-10.2
	C305.5,823,300.9,821.8,297.4,823.8z M260.3,797.4c0-7.4,3.7-13.9,9.3-17.8l-5.5-9.1c-6.5,4.4-11.4,11-13.4,18.9
	c2.4,1.9,3.9,4.8,3.9,8.1c0,3.3-1.5,6.2-3.9,8.1c2,7.8,6.9,14.5,13.4,18.9l5.5-9.1C263.9,811.3,260.3,804.8,260.3,797.4z
	 M282.1,775.6c11.4,0,20.7,8.7,21.7,19.9l10.6-0.2c-0.5-8.2-4.1-15.6-9.6-21c-2.8,1.1-6.1,0.9-9-0.7c-2.8-1.6-4.6-4.4-5.1-7.4
	c-2.8-0.8-5.7-1.2-8.7-1.2c-5.2,0-10,1.2-14.4,3.4l5.2,9.3C275.7,776.3,278.8,775.6,282.1,775.6z M282.1,819.2c-3.3,0-6.4-0.7-9.2-2
	l-5.2,9.3c4.3,2.1,9.2,3.4,14.4,3.4c3,0,5.9-0.4,8.7-1.2c0.5-3,2.3-5.8,5.1-7.4c2.8-1.6,6.1-1.8,9-0.7c5.5-5.4,9.1-12.8,9.6-21
	l-10.6-0.2C302.8,810.4,293.5,819.2,282.1,819.2z M297.4,770.9c3.6,2.1,8.1,0.8,10.2-2.7c2.1-3.6,0.8-8.1-2.7-10.2
	c-3.6-2.1-8.1-0.8-10.2,2.7C292.6,764.3,293.8,768.8,297.4,770.9z"/>
<g id="layer2" transform="translate(-5242.0376,-389.21596)" sodipodi:insensitive="true" inkscape:groupmode="layer" inkscape:label="Layer 2" class="st3">
	
		<linearGradient id="rect4710_1_" gradientUnits="userSpaceOnUse" x1="6693.3257" y1="797.6157" x2="6865.5337" y2="625.0111" gradientTransform="matrix(3.7795 0 0 -3.7795 -33602.1484 3476.8418)">
		<stop  offset="0" style="stop-color:#542767"/>
		<stop  offset="1" style="stop-color:#8B3582"/>
	</linearGradient>
	<rect id="rect4710" x="-8640.3" y="474.4" class="st4" width="1350.4" height="656.1"/>
	<g class="st5">
		<defs>
			<rect id="SVGID_1_" x="-8640.3" y="474.4" width="1350.4" height="656.1"/>
		</defs>
		<clipPath id="SVGID_2_">
			<use xlink:href="#SVGID_1_"  style="overflow:visible;"/>
		</clipPath>
		<g id="g4753" transform="translate(199.19576,24.934381)" inkscape:groupmode="maskhelper" class="st6">
			<g id="g4746_1_">
				
					<radialGradient id="circle4732_2_" cx="6479.8667" cy="651.8085" r="149.3075" gradientTransform="matrix(5.5353 0 0 -2.4706 -44161.6602 2723.8215)" gradientUnits="userSpaceOnUse">
					<stop  offset="0" style="stop-color:#C86EBE"/>
					<stop  offset="1" style="stop-color:#C86EBE;stop-opacity:0"/>
				</radialGradient>
				<ellipse id="circle4732_1_" class="st7" cx="-8293.9" cy="1113.5" rx="826.5" ry="368.9"/>
				
					<radialGradient id="path4722_2_" cx="6725.0542" cy="552.2025" r="82.7353" gradientTransform="matrix(9.1263 0 0 -9.1263 -69169.1562 6209.2324)" gradientUnits="userSpaceOnUse">
					<stop  offset="0" style="stop-color:#F37E40"/>
					<stop  offset="1" style="stop-color:#F37E40;stop-opacity:0"/>
				</radialGradient>
				<circle id="path4722_1_" class="st8" cx="-7794.2" cy="1169.7" r="755.1"/>
			</g>
		</g>
	</g>
	<path id="path4672" inkscape:connector-curvature="0" sodipodi:nodetypes="cccccccccccc" class="st9" d="M-7847.1,567.3
		c-53.6,0.1-102.7,29.8-127.5,77.2c-16.4-14.6-37.5-22.7-59.5-22.7c-49.5,0-89.6,40.1-89.6,89.6c0,7.9,1.1,15.7,3.1,23.3
		c-65.5,14.9-112.1,73.1-112.2,140.4c0,79.6,64.5,144.1,144.1,144.1h381.8c79.6,0,144.1-64.5,144.1-144.1
		c-0.1-78.6-63.1-142.7-141.7-144c0.9-6.5,1.5-13,1.5-19.6C-7703,631.9-7767.5,567.3-7847.1,567.3L-7847.1,567.3z"/>
	<path id="path4674" inkscape:connector-curvature="0" sodipodi:nodetypes="ccccccccc" class="st10" d="M-7932.3,981.7
		c0,9.7-3.8,9.6-13.5,9.7h-126.4c-9.8-0.1-13.5,0-13.5-9.7V727.5c0-9.7,3.8-9.6,13.5-9.7h126.4c9.8,0.1,13.5,0,13.5,9.7V981.7z"/>
	
		<path id="path4686" inkscape:connector-curvature="0" sodipodi:nodetypes="ccssscccccsssccccccsscccccssscccccssscccccsssccccccccsssccccccsscccccccsssccccccsscccccccccsscccccsssccccccccccscccccssccccccsssccccccssssccccccsccccccsssccccsccscccssssscccccccccccsssssccccccccssssscssccccccccccscccccccssccssssccssscccccccccssssccssssccssccssssccsssccccccssssccssssccccccccccccccc" class="st11" d="
		M-8033,742.2c-5,0.1-8.6,0-11.3,1.4c-1.3,0.7-2.3,1.9-2.9,3.5s-0.8,3.5-0.8,6.1v4c0,2.6,0.2,4.5,0.8,6.1c0.6,1.6,1.6,2.7,2.9,3.5
		c1.2,0.7,2.7,1,4.4,1.2v0.5c-1.7,0.2-3.2,0.5-4.4,1.2c-1.3,0.7-2.3,1.9-2.9,3.5c-0.6,1.6-0.8,3.6-0.8,6.1v4c0,2.6,0.2,4.5,0.8,6.1
		c0.6,1.6,1.6,2.7,2.9,3.5c1.2,0.7,2.7,1,4.4,1.2v0.5c-1.7,0.2-3.2,0.5-4.4,1.2c-1.3,0.7-2.3,1.9-2.9,3.5c-0.6,1.6-0.8,3.6-0.8,6.1
		v4c0,2.6,0.2,4.5,0.8,6.1c0.6,1.6,1.6,2.7,2.9,3.5c2.6,1.4,6.2,1.4,11.3,1.4h48c5-0.1,8.6,0,11.2-1.4c1.3-0.7,2.3-1.9,2.9-3.5
		c0.6-1.6,0.8-3.5,0.8-6.1v-4c0-2.6-0.2-4.5-0.8-6.1c-0.6-1.6-1.6-2.7-2.9-3.5c-1.2-0.7-2.7-1-4.4-1.2V794c1.7-0.2,3.2-0.5,4.4-1.2
		c1.3-0.7,2.3-1.9,2.9-3.5s0.8-3.6,0.8-6.1v-4c0-2.6-0.2-4.5-0.8-6.1c-0.6-1.6-1.6-2.7-2.9-3.5c-1.2-0.7-2.7-1-4.4-1.2V768
		c1.7-0.2,3.2-0.5,4.4-1.2c1.3-0.7,2.3-1.9,2.9-3.5s0.8-3.6,0.8-6.1v-4c0-2.6-0.2-4.5-0.8-6.1c-0.6-1.6-1.6-2.7-2.9-3.5
		c-2.6-1.4-6.2-1.4-11.2-1.4L-8033,742.2z M-8033,744.2L-8033,744.2h48c5,0.1,8.4,0.2,10.3,1.2c0.9,0.5,1.5,1.2,2,2.4
		c0.5,1.2,0.7,3,0.7,5.4v4c0,2.4-0.2,4.2-0.7,5.4c-0.5,1.2-1.1,1.9-2,2.4c-1.9,1-5.3,1.1-10.3,1.2h-48c-5-0.1-8.5-0.2-10.3-1.2
		c-0.9-0.5-1.5-1.2-2-2.4s-0.7-3-0.7-5.4v-4c0-2.4,0.2-4.2,0.7-5.4c0.5-1.2,1.1-1.9,2-2.4C-8041.5,744.4-8038.1,744.3-8033,744.2
		L-8033,744.2z M-8033,770.2L-8033,770.2h48c5,0.1,8.4,0.2,10.3,1.2c0.9,0.5,1.5,1.2,2,2.4c0.5,1.2,0.7,3,0.7,5.4v4
		c0,2.4-0.2,4.2-0.7,5.4c-0.5,1.2-1.1,1.9-2,2.4c-1.9,1-5.3,1.1-10.3,1.2h-48c-5-0.1-8.5-0.2-10.3-1.2c-0.9-0.5-1.5-1.2-2-2.4
		c-0.5-1.2-0.7-3-0.7-5.4v-4c0-2.4,0.2-4.2,0.7-5.4c0.5-1.2,1.1-1.9,2-2.4C-8041.5,770.4-8038.1,770.3-8033,770.2L-8033,770.2z
		 M-8033,796.2L-8033,796.2l48,0v0c5,0.1,8.5,0.2,10.3,1.2c0.9,0.5,1.5,1.2,2,2.4c0.5,1.2,0.7,3,0.7,5.4v4c0,2.4-0.2,4.2-0.7,5.4
		c-0.5,1.2-1.1,1.9-2,2.4c-1.9,1-5.3,1.1-10.3,1.2h-48c-5-0.1-8.5-0.2-10.3-1.2c-0.9-0.5-1.5-1.2-2-2.4c-0.5-1.2-0.7-3-0.7-5.4v-4
		c0-2.4,0.2-4.2,0.7-5.4c0.5-1.2,1.1-1.9,2-2.4C-8041.4,796.4-8038,796.3-8033,796.2L-8033,796.2z M-8386.5,817.7
		c-5,0.1-8.6,0-11.3,1.4c-1.3,0.7-2.3,1.9-2.9,3.5c-0.6,1.6-0.8,3.6-0.8,6.1v51h86v-1v-50c0-2.6-0.2-4.5-0.8-6.1
		c-0.6-1.6-1.6-2.7-2.9-3.5c-2.6-1.4-6.2-1.4-11.3-1.4H-8386.5L-8386.5,817.7z M-7784,819.6c-6.6,0-12,5.4-12,12
		c0,1.6,0.3,3.1,0.9,4.5l-13.5,6.8c-0.6-0.6-1.5-1-2.4-1c-1.9,0-3.4,1.5-3.4,3.4c0,0.1,0,0.3,0,0.4l-13.3,6.7
		c-2.1-3.5-5.9-5.8-10.2-5.8c-6.6,0-12,5.4-12,12s5.4,12,12,12c4.3,0,8-2.2,10.1-5.6l13.4,7c0,0.2-0.1,0.4-0.1,0.6
		c0,1.9,1.5,3.4,3.4,3.4c0.9,0,1.8-0.4,2.4-1l13.2,6.9c-0.4,1.2-0.6,2.5-0.6,3.8c0,6.6,5.4,12,12,12c6.6,0,12-5.4,12-12
		c0-6.6-5.4-12-12-12c-4.6,0-8.6,2.6-10.6,6.4l-13.1-6.8c0-0.2,0.1-0.4,0.1-0.6c0-1.9-1.5-3.4-3.4-3.4c-0.9,0-1.8,0.4-2.5,1l-13.4-7
		c0.6-1.4,0.9-3,0.9-4.6c0-1.6-0.3-3.1-0.9-4.5l13.2-6.6c0.7,0.8,1.6,1.2,2.6,1.2c1.9,0,3.4-1.5,3.4-3.4c0-0.2,0-0.5-0.1-0.7
		l13.5-6.7c2.1,3.5,5.9,5.8,10.2,5.8c6.6,0,12-5.4,12-12S-7777.4,819.6-7784,819.6L-7784,819.6z M-8386.5,819.7h56
		c5,0.1,8.4,0.1,10.3,1.2c0.9,0.5,1.5,1.2,2,2.4c0.5,1.2,0.7,3,0.7,5.4v49h-82v-49c0-2.4,0.2-4.2,0.7-5.4c0.5-1.2,1.1-1.9,2-2.4
		C-8395,819.8-8391.6,819.7-8386.5,819.7L-8386.5,819.7z M-7784,821.6c5.5,0,10,4.5,10,10c0,5.5-4.5,10-10,10c-5.5,0-10-4.5-10-10
		C-7794,826.1-7789.6,821.6-7784,821.6z M-8009.3,831.5c-3,4.5-4.9,9.1-4.9,9.1h3.9v35.9h-3.9c0,0,1.9,4.6,4.9,9.1
		c3-4.5,4.9-9.1,4.9-9.1h-3.9v-35.9h3.9C-8004.4,840.7-8006.3,836-8009.3,831.5z M-7838,848.6c5.5,0,10,4.5,10,10
		c0,5.5-4.5,10-10,10c-5.5,0-10-4.5-10-10C-7848,853.1-7843.6,848.6-7838,848.6z M-8090.9,853.7v3.9h-201.4v2h201.4v3.9
		c0,0,4.6-1.9,9.1-4.9C-8086.3,855.6-8090.9,853.7-8090.9,853.7L-8090.9,853.7z M-7784,875.6c5.5,0,10,4.5,10,10c0,5.5-4.5,10-10,10
		c-5.5,0-10-4.5-10-10C-7794,880.1-7789.6,875.6-7784,875.6z M-8406.5,884.7c0,8,2,8,12,8h72c10,0,12,0,12-8h-40v2h-16v-2H-8406.5z
		 M-8009.9,896.3c-13,0.3-25.5,7.1-32.4,19.2c-10.6,18.3-4.3,41.8,14.1,52.4c18.4,10.6,41.8,4.3,52.4-14s4.3-41.8-14.1-52.4
		C-7996.2,897.9-8003.1,896.2-8009.9,896.3L-8009.9,896.3z M-8009.8,898.3c6.4-0.1,13,1.4,19,4.9c17.4,10.1,23.4,32.3,13.4,49.7
		c-10,17.4-32.3,23.3-49.7,13.3c-17.4-10.1-23.4-32.3-13.4-49.7C-8034,905.1-8022.1,898.6-8009.8,898.3L-8009.8,898.3z
		 M-8004.3,909.1c-3.4,0-6.2,2.8-6.2,6.1v18.4h3.1v-18.4c0-1.7,1.3-3.1,3.1-3.1h0.8c1.7,0,3.1,1.3,3.1,3.1v3.1h3.1v-3.1
		c0-3.4-2.8-6.1-6.2-6.1H-8004.3z M-7879.3,915v3.9l-74.4,0v2h74.4v3.9c0,0,4.6-1.9,9.1-4.9C-7874.7,916.9-7879.3,915-7879.3,915
		L-7879.3,915z M-8000.4,919.9v7.7c0,3.4,2.8,6.1,6.2,6.1h0.8c3.4,0,6.2-2.8,6.2-6.1v-7.7h-3.1v7.7c0,1.7-1.3,3.1-3.1,3.1h-0.8
		c-1.7,0-3.1-1.3-3.1-3.1v-7.7H-8000.4z M-8024.3,929.5c-3.4,0-6.1,2.8-6.1,6.1v18.4h3.1v-18.4c0-1.7,1.3-3.1,3.1-3.1h0.8
		c1.7,0,3.1,1.3,3.1,3.1v3.1h3.1v-3.1c0-3.4-2.8-6.1-6.1-6.1L-8024.3,929.5z M-8008.9,935.2c-0.8,0-1.5,0.7-1.5,1.5
		c0,0.8,0.7,1.5,1.5,1.5c0.9,0,1.5-0.7,1.5-1.5C-8007.4,935.9-8008.1,935.2-8008.9,935.2z M-8020.5,940.3v7.7c0,3.4,2.8,6.1,6.1,6.1
		h0.8c3.4,0,6.1-2.8,6.1-6.1v-7.7h-3.1v7.7c0,1.7-1.3,3.1-3.1,3.1h-0.8c-1.7,0-3.1-1.3-3.1-3.1v-7.7H-8020.5z M-7944.7,945
		c0,0-4.6,1.9-9.1,4.9c4.5,3,9.1,4.9,9.1,4.9v-3.9h74.4v-2h-74.4V945z M-8028.9,955.6c-0.8,0-1.5,0.7-1.5,1.5c0,0.8,0.7,1.5,1.5,1.5
		c0.8,0,1.5-0.7,1.5-1.5C-8027.4,956.3-8028.1,955.6-8028.9,955.6z"/>
	<text transform="matrix(1 0 0 1 -7685.7524 701.4355)" class="st11" style="font-family:'Ubuntu-Light'; font-size:26.6667px;">Cloud</text>
	<path id="path4692" inkscape:connector-curvature="0" class="st13" d="M-7784.1,765.7c-6.6,0-12,5.4-12,12c0,1.6,0.3,3.1,0.9,4.5
		l-13.5,6.8c-0.6-0.6-1.5-1-2.4-1c-1.9,0-3.4,1.5-3.4,3.4c0,0.1,0,0.3,0,0.4l-13.3,6.7c-2.1-3.5-5.9-5.8-10.2-5.8
		c-6.6,0-12,5.4-12,12c0,6.6,5.4,12,12,12c4.3,0,8-2.2,10.1-5.6l13.4,7c0,0.2-0.1,0.4-0.1,0.6c0,1.9,1.5,3.4,3.4,3.4
		c0.9,0,1.8-0.4,2.4-1l13.2,6.9c-0.4,1.2-0.6,2.5-0.6,3.8c0,6.6,5.4,12,12,12c6.6,0,12-5.4,12-12c0-6.6-5.4-12-12-12
		c-4.6,0-8.6,2.6-10.6,6.4l-13.1-6.8c0-0.2,0.1-0.4,0.1-0.6c0-1.9-1.5-3.4-3.4-3.4c-0.9,0-1.8,0.4-2.5,1l-13.4-7
		c0.6-1.4,0.9-3,0.9-4.6c0-1.6-0.3-3.1-0.9-4.5l13.2-6.6c0.6,0.8,1.6,1.2,2.6,1.2c1.9,0,3.4-1.5,3.4-3.4c0,0,0,0,0,0
		c0-0.2,0-0.5-0.1-0.7l13.5-6.7c2.1,3.5,5.9,5.8,10.2,5.8c6.6,0,12-5.4,12-12S-7777.4,765.7-7784.1,765.7L-7784.1,765.7z
		 M-7784.1,767.7c5.5,0,10,4.5,10,10c0,5.5-4.5,10-10,10c-5.5,0-10-4.5-10-10C-7794.1,772.2-7789.6,767.7-7784.1,767.7z
		 M-7838.1,794.7c5.5,0,10,4.5,10,10c0,5.5-4.5,10-10,10s-10-4.5-10-10C-7848.1,799.2-7843.6,794.7-7838.1,794.7z M-7784.1,821.7
		c5.5,0,10,4.5,10,10s-4.5,10-10,10c-5.5,0-10-4.5-10-10C-7794.1,826.2-7789.6,821.7-7784.1,821.7z"/>
	<path id="path4694" inkscape:connector-curvature="0" class="st13" d="M-7784.1,873.6c-6.6,0-12,5.4-12,12c0,1.6,0.3,3.1,0.9,4.5
		l-13.5,6.8c-0.6-0.6-1.5-1-2.4-1c-1.9,0-3.4,1.5-3.4,3.4c0,0.1,0,0.3,0,0.4l-13.3,6.7c-2.1-3.5-5.9-5.8-10.2-5.8
		c-6.6,0-12,5.4-12,12c0,6.6,5.4,12,12,12c4.3,0,8-2.2,10.1-5.6l13.4,7c0,0.2-0.1,0.4-0.1,0.6c0,1.9,1.5,3.4,3.4,3.4
		c0.9,0,1.8-0.4,2.4-1l13.2,6.9c-0.4,1.2-0.6,2.5-0.6,3.8c0,6.6,5.4,12,12,12s12-5.4,12-12s-5.4-12-12-12c-4.6,0-8.6,2.6-10.6,6.4
		l-13.1-6.8c0-0.2,0.1-0.4,0.1-0.6c0-1.9-1.5-3.4-3.4-3.4c-0.9,0-1.8,0.4-2.5,1l-13.4-7c0.6-1.4,0.9-3,0.9-4.6
		c0-1.6-0.3-3.1-0.9-4.5l13.2-6.6c0.6,0.8,1.6,1.2,2.6,1.2c1.9,0,3.4-1.5,3.4-3.4c0,0,0,0,0,0c0-0.2,0-0.5-0.1-0.7l13.5-6.7
		c2.1,3.5,5.9,5.8,10.2,5.8c6.6,0,12-5.4,12-12C-7772.1,879-7777.4,873.6-7784.1,873.6L-7784.1,873.6z M-7784.1,875.6
		c5.5,0,10,4.5,10,10c0,5.5-4.5,10-10,10s-10-4.5-10-10C-7794.1,880.1-7789.6,875.6-7784.1,875.6z M-7838.1,902.6
		c5.5,0,10,4.5,10,10c0,5.5-4.5,10-10,10s-10-4.5-10-10C-7848.1,907.1-7843.6,902.6-7838.1,902.6z M-7784.1,929.6
		c5.5,0,10,4.5,10,10c0,5.5-4.5,10-10,10s-10-4.5-10-10C-7794.1,934.1-7789.6,929.6-7784.1,929.6z"/>
	<text transform="matrix(1 0 0 1 -8082.3149 701.4355)" class="st11" style="font-family:'Ubuntu-Light'; font-size:26.6667px;">State Server</text>
	<text transform="matrix(1 0 0 1 -7890.7002 701.4728)" class="st11" style="font-family:'Ubuntu-Light'; font-size:26.6667px;">Environment</text>
	<text transform="matrix(1 0 0 1 -8410.5732 698.2621)" class="st11" style="font-family:'Ubuntu-Light'; font-size:26.6667px;">CLI / GUI</text>
	<path id="path4784" inkscape:connector-curvature="0" sodipodi:nodetypes="ccccccccc" class="st10" d="M-7736.1,981.7
		c0,9.7-3.8,9.6-13.5,9.7H-7876c-9.8-0.1-13.5,0-13.5-9.7V727.5c0-9.7,3.8-9.6,13.5-9.7h126.4c9.8,0.1,13.5,0,13.5,9.7V981.7z"/>
</g>
<g id="g6605" transform="translate(-5242.0376,-389.21596)" inkscape:groupmode="layer" inkscape:label="lorem ipsum">
</g>
</svg>
