<?xml version="1.0" encoding="UTF-8" standalone="no"?>
<!-- Created with Inkscape (http://www.inkscape.org/) -->

<svg
   xmlns:dc="http://purl.org/dc/elements/1.1/"
   xmlns:cc="http://creativecommons.org/ns#"
   xmlns:rdf="http://www.w3.org/1999/02/22-rdf-syntax-ns#"
   xmlns:svg="http://www.w3.org/2000/svg"
   xmlns="http://www.w3.org/2000/svg"
   xmlns:xlink="http://www.w3.org/1999/xlink"
   xmlns:sodipodi="http://sodipodi.sourceforge.net/DTD/sodipodi-0.dtd"
   xmlns:inkscape="http://www.inkscape.org/namespaces/inkscape"
   width="74"
   height="108"
   id="svg2"
   version="1.1"
   inkscape:version="0.48.4 r9939"
   sodipodi:docname="asd.svg">
  <title
     id="title3055">at&amp;t logo</title>
  <defs
     id="defs4">
    <linearGradient
       inkscape:collect="always"
       xlink:href="#linearGradient3119"
       id="linearGradient3125"
       x1="34.060375"
       y1="82.171875"
       x2="-34.658569"
       y2="16.267342"
       gradientUnits="userSpaceOnUse" />
    <linearGradient
       inkscape:collect="always"
       id="linearGradient3119">
      <stop
         style="stop-color:#ffffff;stop-opacity:1"
         offset="0"
         id="stop3121" />
      <stop
         style="stop-color:#c7c7c7;stop-opacity:1"
         offset="1"
         id="stop3123" />
    </linearGradient>
    <linearGradient
       y2="47.262329"
       x2="-46.311432"
       y1="46.355442"
       x1="35.458717"
       gradientUnits="userSpaceOnUse"
       id="linearGradient3946"
       xlink:href="#linearGradient3119"
       inkscape:collect="always" />
  </defs>
  <sodipodi:namedview
     id="base"
     pagecolor="#ffffff"
     bordercolor="#666666"
     borderopacity="1.0"
     inkscape:pageopacity="0.0"
     inkscape:pageshadow="2"
     inkscape:zoom="4.9122662"
     inkscape:cx="64.114895"
     inkscape:cy="55.408125"
     inkscape:document-units="px"
     inkscape:current-layer="layer1"
     showgrid="false"
     inkscape:showpageshadow="false"
     inkscape:window-width="1600"
     inkscape:window-height="844"
     inkscape:window-x="-4"
     inkscape:window-y="-4"
     inkscape:window-maximized="1">
    <inkscape:grid
       type="xygrid"
       id="grid3053"
       empspacing="5"
       visible="true"
       enabled="true"
       snapvisiblegridlinesonly="true" />
  </sodipodi:namedview>
  <metadata
     id="metadata7">
    <rdf:RDF>
      <cc:Work
         rdf:about="">
        <dc:format>image/svg+xml</dc:format>
        <dc:type
           rdf:resource="http://purl.org/dc/dcmitype/StillImage" />
        <dc:title>at&amp;t logo</dc:title>
      </cc:Work>
    </rdf:RDF>
  </metadata>
  <g
     inkscape:label="Capa 1"
     inkscape:groupmode="layer"
     id="layer1"
     transform="translate(0,-944.3622)">
    <path
       sodipodi:type="arc"
       style="fill:url(#linearGradient3946);fill-opacity:1"
       id="path3091"
       sodipodi:cx="-5.9243212"
       sodipodi:cy="43.601017"
       sodipodi:rx="41.200958"
       sodipodi:ry="40.393101"
       d="m 35.276637,43.601017 a 41.200958,40.393101 0 1 1 -82.401916,0 41.200958,40.393101 0 1 1 82.401916,0 z"
       transform="matrix(0.85372624,0,0,0.88666667,41.954362,944.10262)" />
    <path
       d="m 4.6914853,971.12178 c 0,-1.54102 0.214828,-2.62403 0.6232747,-3.5879 0.6805491,-1.43458 1.4508216,-2.81739 2.3031939,-4.14161 -0.2176624,0.37597 -0.3493153,0.80664 -0.3493153,1.31152 0,3.3506 8.0156814,7.70119 18.9548994,9.126 3.706222,0.48438 13.519205,1.85352 21.116862,1.21289 15.334589,-1.29492 18.745936,-6.77443 18.745936,-10.33889 0,-0.97461 -0.517327,-2.39649 -1.032796,-3.22364 0.694916,0.94336 1.351617,1.92286 1.958569,2.93458 1.172171,2.09082 1.025173,2.9209 1.025173,3.28321 0,7.27541 -13.234788,12.02444 -22.090429,14.50004 C 23.22836,988.5447 4.6914853,979.89524 4.6914853,971.12178 z m 7.2483407,-10.19729 c 0,3.28028 4.667376,8.52638 18.187559,8.52638 8.015682,0 14.487007,-1.58789 19.372045,-3.25098 7.830566,-2.66212 11.707634,-5.91701 11.568259,-8.34084 -0.02248,-0.37696 -0.166056,-0.98829 -0.601283,-1.47266 -1.739149,-1.59083 -3.63282,-3.01173 -5.654334,-4.2295 1.336273,0.79785 2.092178,1.72363 2.092178,2.75488 0,3.61427 -8.626543,6.9258 -19.896018,7.2217 -11.268595,0.29688 -20.605302,-2.54004 -20.85727,-6.1465 -0.08405,-1.19141 0.75786,-2.36719 2.351868,-3.40821 -1.217913,0.77051 -2.384317,1.61524 -3.495304,2.52735 -3.13553,2.66212 -3.0677,5.47267 -3.0677,5.81838 z m 29.335839,42.35851 c -6.861788,0.2505 -18.942585,-2.168 -26.549722,-5.3477 -6.1239638,-2.5605 -12.1829324,-7.541 -12.8329873,-12.29298 0.073304,1.14453 0.1994832,2.27348 0.3770729,3.38278 3.7548951,20.9498 29.5457794,19.7525 33.9898244,19.2486 32.441753,-3.6816 35.234516,-17.854 35.660263,-20.6529 0.06842,-0.58395 0.125984,-1.16988 0.167914,-1.76168 -0.572647,3.73048 -6.057111,16.51758 -30.812365,17.42388 z m -24.668463,4.7778 c -5.822345,-2.4629 -9.8502214,-6.5571 -11.4689567,-9.5473 1.4899168,3.2343 3.434217,6.2114 5.7535377,8.8344 7.585244,7.2911 19.247038,8.1739 24.60073,8.1739 22.675488,0 30.773269,-12.1934 32.603901,-15.4556 0.339834,-0.6524 0.658655,-1.3223 0.960275,-2 -3.588838,7.563 -22.201167,22.7818 -52.449487,9.9946 z M 71.52115,977.59054 c 0,-0.58105 -0.06842,-1.73438 -0.334069,-2.91993 -0.189024,-0.80176 -0.408544,-1.58985 -0.649077,-2.36914 0.425649,1.46484 0.356939,2.48926 0.356939,2.88379 0,1.78614 -2.168511,12.70704 -23.485834,14.69144 -1.84402,0.1699 -15.387074,0.3848 -27.162537,-2.66211 -7.832423,-2.02735 -15.6972953,-5.9463 -17.1814455,-11.38675 -0.230075,-0.84961 -0.1298937,-1.63184 0.053756,-2.36817 l 0,0 c -0.5975696,2.17774 -0.9993702,4.4424 -1.1864405,6.7676 0.1364421,5.7295 4.9976325,12.40923 13.9085936,15.28423 10.173832,3.2773 16.421825,3.3828 31.219052,0.012 24.694167,-5.6328 24.461355,-16.69927 24.461355,-17.93268 z"
       style="fill:#32a5dd"
       id="path21"
       inkscape:connector-curvature="0" />
    <g
       id="g3008"
       transform="matrix(0.9628171,0,0,0.9668619,1.0638258,1028.3506)">
      <path
         id="path3010"
         d="m 18.779527,22.074803 c -0.212599,-0.637795 -0.283465,-1.311023 -0.283465,-1.594488 -0.03543,-0.212598 -0.03543,-1.133858 -0.03543,-1.133858 l 0,-11.2677169 c 0,-5.9527559 -4.216535,-8.04330703 -8.149606,-8.04330703 -3.1181099,0 -5.9527554,0.81496063 -7.7952751,2.01968503 -0.1417322,0.1062992 -0.2480314,0.2480315 -0.2834645,0.4251969 -0.035433,0.1417322 0,0.3188976 0.1062992,0.4606299 0,0.035433 1.4527559,1.9488189 1.4527559,1.9488189 0.1771653,0.2834645 0.6023621,0.3543307 0.8858267,0.1417323 L 4.8543305,4.9251968 C 6.3070864,4.0393701 7.9724407,3.507874 9.7086611,3.507874 c 4.8543309,0 4.7125979,3.7913386 4.7125979,4.2874016 0,0.2834645 -0.141732,0.3188976 -0.318897,0.3188976 0,0 -0.779528,0 -0.779528,0 C 9.5669288,7.9724409 0,9.2480315 0,16.830709 c 0,4.464567 3.7204723,6.732283 7.1929131,6.732283 3.3307089,0 6.0590549,-1.346457 7.4055119,-2.976378 l 0,0 c 0,-0.03543 0.03543,-0.03543 0.07087,-0.03543 0.03543,0 0.07087,0.03543 0.07087,0.07087 0,0.212599 0,0.708662 0.07087,1.098425 0,0.389764 0.07087,0.637796 0.141732,0.850394 0.03543,0.177165 0.141733,0.354331 0.318898,0.425197 0.106299,0.07087 0.177165,0.07087 0.283465,0.07087 l 2.692913,0 c 0.354331,0 0.637795,-0.248031 0.637795,-0.602362 0,-0.106299 -0.106299,-0.389764 -0.106299,-0.389764 z M 14.598425,13.251968 C 14.031496,17.149606 12.11811,19.38189 8.6102359,19.948819 6.094488,20.374016 3.8622046,19.346457 3.7204723,16.688976 3.6141731,13.748031 7.0157478,11.30315 13.287401,11.551181 c 0,0 0.46063,0.03543 0.779528,0.07087 0.248031,0.03543 0.425196,0.106299 0.531496,0.283465 0.106299,0.141732 0.106299,0.46063 0,1.346456 z"
         style="fill:#000000;fill-opacity:1;fill-rule:nonzero;stroke:none"
         inkscape:connector-curvature="0" />
    </g>
    <g
       id="g3022"
       transform="matrix(0.9628171,0,0,0.9668619,19.670385,1022.6622)">
      <path
         id="path3024"
         d="m 13.854331,26.043307 c 0,0 -0.141733,0 -0.141733,0 -3.437007,0 -5.208661,-1.842519 -5.208661,-5.456693 l 0,-10.665354 c 0,-0.1771654 0.1417323,-0.3188977 0.3543307,-0.3188977 l 5.4212603,0 c 0.35433,0 0.637795,-0.3188976 0.637795,-0.6732283 l 0,-2.3385827 c 0,-0.3897638 -0.283465,-0.6732284 -0.637795,-0.6732284 l -5.4212603,0 c -0.1771653,0 -0.3543307,-0.1417323 -0.3543307,-0.3543307 l 0,-4.88976384 C 8.503937,0.31889764 8.2559055,0.03543307 7.9015748,0 L 7.7952756,0 c 0,0 -2.7637795,0.2480315 -2.7637795,0.2480315 -0.3543307,0 -0.6377953,0.2480315 -0.6377953,0.63779528 l 0,4.71259852 c 0,0.1771653 -0.1417323,0.3188976 -0.3188976,0.3188976 l -3.43700792,0 C 0.28346457,5.9173229 0,6.2007875 0,6.5551182 l 0,2.4094489 c 0,0.1771653 0.07086614,0.3188976 0.21259843,0.4251968 0.10629921,0.1417323 0.28346456,0.2125984 0.46062992,0.2125984 l 3.40157485,0 c 0.1771653,0 0.3188976,0.1417323 0.3188976,0.3188977 l 0,11.374016 c 0,6.094488 4.6062992,8.291339 8.6456692,8.291339 0,0 0.46063,0 0.850394,-0.03543 0.354331,-0.03543 0.637795,-0.283465 0.637795,-0.637796 l 0,-2.232283 c 0,-0.354331 -0.318898,-0.637796 -0.673228,-0.637796 z"
         style="fill:#000000;fill-opacity:1;fill-rule:nonzero;stroke:none"
         inkscape:connector-curvature="0" />
    </g>
    <g
       id="g3036"
       transform="matrix(0.9628171,0,0,0.9668619,37.164124,1027.8207)">
      <path
         id="path3038"
         d="m 20.763779,22.5 -4.322834,-4.464567 c -0.141733,-0.106299 -0.177166,-0.318898 -0.07087,-0.46063 0,-0.03543 3.295275,-5.562992 3.295275,-5.562992 0.07087,-0.141732 0.07087,-0.248032 0.07087,-0.318898 0,-0.35433 -0.283464,-0.637795 -0.637795,-0.637795 l -2.409449,0 c -0.248031,0 -0.46063,0.141732 -0.566929,0.354331 l -2.090551,3.57874 c -0.106299,0.141732 -0.283465,0.177165 -0.46063,0.07087 0,0 -3.366142,-3.437008 -3.366142,-3.437008 -0.03543,-0.07087 -0.07087,-0.141732 -0.07087,-0.212598 0,-0.1063 0.03543,-0.177166 0.106299,-0.248032 l 0.03543,-0.03543 C 12.188976,10.027559 14.350394,8.3976377 14.350394,5.527559 14.350394,2.2322834 11.976378,0 8.4685039,0 5.031496,0 2.4094488,2.3031496 2.4094488,5.7755905 c 0,1.4881889 0.6377953,3.011811 1.9488189,4.6062995 l 0,0.03543 c 0.070866,0.07087 0.1062992,0.141732 0.070866,0.212598 0,0.106299 -0.035433,0.177165 -0.1062992,0.248032 C 1.4527559,12.507874 0,14.669291 0,17.291338 c 0,4.5 3.7559055,6.838583 7.4409448,6.838583 2.5511811,0 4.5354332,-0.992126 6.4488192,-3.153543 l 0.03543,-0.07087 c 0.106299,-0.1063 0.318897,-0.1063 0.46063,0.03543 l 2.303149,2.374015 c 0.03543,0.03543 0.07087,0.07087 0.07087,0.07087 0.141733,0.141733 0.283465,0.177166 0.46063,0.177166 l 3.047244,0 c 0.389764,0 0.673229,-0.283465 0.673229,-0.637795 0,-0.141733 -0.07087,-0.318898 -0.177166,-0.425197 l 0,0 z M 8.53937,3.3307086 c 1.4527559,0 2.232283,0.992126 2.232283,2.2322835 0,1.4173228 -1.2755901,2.2322834 -2.8346452,3.0826771 l -0.070866,0.035433 c -0.1062993,0.070866 -0.2834646,0.035433 -0.3543308,-0.035433 0,-0.035433 -0.035433,-0.035433 -0.035433,-0.035433 C 6.8031495,7.8661416 6.023622,6.6968503 6.023622,5.8464566 c 0,-1.4173228 0.992126,-2.515748 2.515748,-2.515748 z m 3.082677,15.2007874 0,0.03543 c -1.133858,1.311024 -2.3385825,2.19685 -4.1102361,2.19685 -2.1259842,0 -3.7913385,-1.523622 -3.7913385,-3.437008 0,-1.73622 0.7440945,-2.728346 2.9055118,-4.03937 0.1771653,-0.106299 0.3188976,-0.07087 0.4251968,0.03543 l 4.535433,4.748032 c 0.07087,0.07087 0.141732,0.141732 0.141732,0.212598 l 0,0.03543 c 0,0.07087 -0.03543,0.141733 -0.106299,0.212599 z"
         style="fill:#000000;fill-opacity:1;fill-rule:nonzero;stroke:none"
         inkscape:connector-curvature="0" />
    </g>
    <path
       d="m 71.801975,1047.7581 c -0.0038,0 -0.133517,0 -0.133517,0 -3.335089,0 -5.027549,-1.779 -5.027549,-5.2744 l 0,-10.3088 c 0,-0.1776 0.149501,-0.3229 0.326269,-0.3229 l 5.225002,0 c 0.346955,0 0.629032,-0.2832 0.629032,-0.6251 l 0,-2.2906 c 0,-0.3456 -0.282077,-0.6251 -0.629032,-0.6251 l -5.206197,0 c -0.189931,0 -0.345074,-0.1492 -0.345074,-0.3398 l 0,-4.7362 c 0.01786,-0.338 -0.251049,-0.6289 -0.596122,-0.6439 l -0.07052,0 c -0.0019,0 -2.673148,0.2114 -2.673148,0.2114 -0.33003,0 -0.610226,0.2738 -0.610226,0.6213 l 0,4.5643 c 0,0.1794 -0.14668,0.3229 -0.32909,0.3229 l -3.279613,0 c -0.345073,0 -0.621509,0.2758 -0.621509,0.6214 l -0.0057,2.3038 c 0.0057,0.1699 0.07428,0.3286 0.194632,0.4362 0.120352,0.1171 0.278316,0.1794 0.447562,0.1794 l 3.27021,0 c 0.176768,0 0.325328,0.1416 0.325328,0.3229 l 0,10.9981 c 0,5.9031 4.422964,8.0125 8.306222,8.0125 0,0 0.459785,0.011 0.812381,-0.028 0.348836,-0.034 0.609286,-0.2796 0.609286,-0.6251 l 0.0038,-2.1603 c 0,-0.3399 -0.280196,-0.6175 -0.622449,-0.6175 z"
       id="path13"
       inkscape:connector-curvature="0" />
  </g>
</svg>
