<?xml version="1.0" encoding="utf-8"?>
<!-- Generator: Adobe Illustrator 16.0.4, SVG Export Plug-In . SVG Version: 6.00 Build 0)  -->
<!DOCTYPE svg PUBLIC "-//W3C//DTD SVG 1.1//EN" "http://www.w3.org/Graphics/SVG/1.1/DTD/svg11.dtd">
<svg version="1.1"
	 id="svg3358" xmlns:dc="http://purl.org/dc/elements/1.1/" xmlns:cc="http://creativecommons.org/ns#" xmlns:rdf="http://www.w3.org/1999/02/22-rdf-syntax-ns#" xmlns:svg="http://www.w3.org/2000/svg"
	 xmlns="http://www.w3.org/2000/svg" xmlns:xlink="http://www.w3.org/1999/xlink" x="0px" y="0px" width="744.286px"
	 height="392.291px" viewBox="27.857 28.854 744.286 392.291" enable-background="new 27.857 28.854 744.286 392.291"
	 xml:space="preserve">
<g id="layer1" transform="translate(0,-602.36218)">
	<path id="path268" fill="#FFFFFF" d="M271,1021.205h-32.635v-129.33H271V1021.205z"/>
	<g id="g270" transform="matrix(10.337276,0,0,-10.337276,-861.34511,8446.2018)">
		<g>
			<defs>
				<polygon id="SVGID_1_" points="84.461,713.596 161.624,713.596 161.624,757.557 84.461,757.557 84.461,713.596 				"/>
			</defs>
			<clipPath id="SVGID_2_">
				<use xlink:href="#SVGID_1_"  overflow="visible"/>
			</clipPath>
			<g id="g272" clip-path="url(#SVGID_2_)">
				<g id="g278" transform="translate(134.9958,727.2001)">
					<path id="path280" fill="#FFFFFF" d="M0,0c-0.129,0.066-1.146,0.668-2.656,0.668c-2.041,0-3.457-1.421-3.457-3.337
						c0-1.859,1.355-3.34,3.457-3.34c1.484,0,2.517,0.589,2.656,0.664v-3.358c-0.396-0.111-1.475-0.445-2.877-0.445
						c-3.551,0-6.668,2.448-6.668,6.479c0,3.736,2.82,6.476,6.668,6.476c1.48,0,2.578-0.361,2.877-0.449V0z"/>
				</g>
				<g id="g282" transform="translate(102.0426,727.2001)">
					<path id="path284" fill="#FFFFFF" d="M0,0c-0.127,0.066-1.142,0.668-2.652,0.668c-2.045,0-3.46-1.421-3.46-3.337
						c0-1.859,1.356-3.34,3.46-3.34c1.484,0,2.516,0.589,2.652,0.664v-3.358c-0.392-0.111-1.469-0.445-2.879-0.445
						c-3.549,0-6.662,2.448-6.662,6.479c0,3.736,2.82,6.476,6.662,6.476c1.486,0,2.582-0.361,2.879-0.449V0z"/>
				</g>
				<g id="g286" transform="translate(144.9274,727.8212)">
					<path id="path288" fill="#FFFFFF" d="M0,0c-1.873,0-3.264-1.474-3.264-3.29c0-1.82,1.391-3.293,3.264-3.293
						c1.871,0,3.266,1.473,3.266,3.293C3.266-1.474,1.871,0,0,0 M6.611-3.29c0-3.579-2.763-6.479-6.611-6.479
						c-3.848,0-6.607,2.9-6.607,6.479c0,3.573,2.759,6.476,6.607,6.476C3.848,3.186,6.611,0.283,6.611-3.29"/>
				</g>
				<g id="g290" transform="translate(121.5124,727.9413)">
					<path id="path292" fill="#FFFFFF" d="M0,0c-0.047,0.015-1.376,0.382-2.468,0.382c-1.265,0-1.953-0.424-1.953-1.025
						c0-0.762,0.928-1.028,1.447-1.192l0.871-0.277C-0.054-2.764,0.88-4.167,0.88-5.691c0-3.143-2.764-4.199-5.18-4.199
						c-1.679,0-3.252,0.309-3.407,0.342v2.879c0.278-0.07,1.602-0.465,2.981-0.465c1.571,0,2.293,0.459,2.293,1.168
						c0,0.634-0.625,1-1.408,1.246c-0.191,0.064-0.478,0.154-0.674,0.218c-1.758,0.556-3.224,1.589-3.224,3.66
						c0,2.34,1.752,3.911,4.662,3.911c1.537,0,2.983-0.373,3.077-0.398V0z"/>
				</g>
				<g id="g294" transform="translate(89.154,744.2304)">
					<path id="path296" fill="#FFFFFF" d="M0,0c0,0.862-0.704,1.561-1.567,1.561C-2.43,1.561-3.135,0.862-3.135,0v-3.284
						c0-0.867,0.705-1.567,1.568-1.567C-0.704-4.851,0-4.151,0-3.284V0z"/>
				</g>
				<g id="g298" transform="translate(97.7633,748.5409)">
					<path id="path300" fill="#FFFFFF" d="M0,0c0,0.862-0.704,1.563-1.567,1.563c-0.864,0-1.568-0.701-1.568-1.563v-7.595
						c0-0.867,0.704-1.566,1.568-1.566C-0.704-9.161,0-8.462,0-7.595V0z"/>
				</g>
				<g id="g302" transform="translate(106.3727,754.4384)">
					<path id="path304" fill="#FFFFFF" d="M0,0c0,0.862-0.704,1.562-1.567,1.562c-0.864,0-1.568-0.7-1.568-1.562v-16.613
						c0-0.867,0.704-1.567,1.568-1.567c0.863,0,1.567,0.7,1.567,1.567V0z"/>
				</g>
				<g id="g306" transform="translate(114.9821,748.5409)">
					<path id="path308" fill="#FFFFFF" d="M0,0c0,0.862-0.704,1.563-1.567,1.563c-0.864,0-1.568-0.701-1.568-1.563v-7.595
						c0-0.867,0.704-1.566,1.568-1.566C-0.704-9.161,0-8.462,0-7.595V0z"/>
				</g>
				<g id="g310" transform="translate(123.5817,744.2304)">
					<path id="path312" fill="#FFFFFF" d="M0,0c0,0.862-0.699,1.561-1.558,1.561c-0.863,0-1.567-0.699-1.567-1.561v-3.284
						c0-0.867,0.704-1.567,1.567-1.567C-0.699-4.851,0-4.151,0-3.284V0z"/>
				</g>
				<g id="g314" transform="translate(132.195,748.5409)">
					<path id="path316" fill="#FFFFFF" d="M0,0c0,0.862-0.699,1.563-1.562,1.563c-0.862,0-1.563-0.701-1.563-1.563v-7.595
						c0-0.867,0.701-1.566,1.563-1.566C-0.699-9.161,0-8.462,0-7.595V0z"/>
				</g>
				<g id="g318" transform="translate(140.8102,754.4384)">
					<path id="path320" fill="#FFFFFF" d="M0,0c0,0.862-0.699,1.562-1.562,1.562c-0.864,0-1.563-0.7-1.563-1.562v-16.613
						c0-0.867,0.699-1.567,1.563-1.567c0.863,0,1.562,0.7,1.562,1.567V0z"/>
				</g>
				<g id="g322" transform="translate(149.4235,748.5409)">
					<path id="path324" fill="#FFFFFF" d="M0,0c0,0.862-0.699,1.563-1.582,1.563c-0.863,0-1.562-0.701-1.562-1.563v-7.595
						c0-0.867,0.699-1.566,1.562-1.566C-0.699-9.161,0-8.462,0-7.595V0z"/>
				</g>
				<g id="g326" transform="translate(158.0192,744.2304)">
					<path id="path328" fill="#FFFFFF" d="M0,0c0,0.862-0.701,1.561-1.563,1.561c-0.863,0-1.564-0.699-1.564-1.561v-3.284
						c0-0.867,0.701-1.567,1.564-1.567C-0.701-4.851,0-4.151,0-3.284V0z"/>
				</g>
			</g>
		</g>
	</g>
</g>
</svg>
