<?xml version="1.0" encoding="utf-8"?>
<!-- Generator: Adobe Illustrator 16.0.4, SVG Export Plug-In . SVG Version: 6.00 Build 0)  -->
<!DOCTYPE svg PUBLIC "-//W3C//DTD SVG 1.1//EN" "http://www.w3.org/Graphics/SVG/1.1/DTD/svg11.dtd">
<svg version="1.1" id="Ebene_1" xmlns="http://www.w3.org/2000/svg" xmlns:xlink="http://www.w3.org/1999/xlink" x="0px" y="0px"
	 width="501.05px" height="495.049px" viewBox="0 0 501.05 495.049" enable-background="new 0 0 501.05 495.049"
	 xml:space="preserve">
<g>
	<path fill="#FFFFFF" d="M241.281,15.478c4.793,0,9.586,0,14.378,0C325.601,19.422,375.468,45.98,412.441,83.2
		c36.971,37.22,64.301,86.31,67.951,156.548c0,4.639,0,9.276,0,13.915c-3.551,71.361-31.361,118.459-67.951,156.78
		c-38.438,36.4-85.689,63.979-157.013,67.488c-4.716,0-9.432,0-14.147,0c-69.932-3.953-119.809-30.499-156.78-67.721
		C47.53,372.99,20.2,323.901,16.548,253.663c0-4.639,0-9.276,0-13.915c0.181-0.051,0.27-0.194,0.232-0.464
		c3.497-69.97,30.976-119.57,67.722-156.316C121.417,46.051,171.801,19.303,241.281,15.478z M195.824,48.643
		c-13.78,3.69-26.138,8.376-37.339,13.915c-34.094,16.859-62.21,40.979-81.869,71.896c-19.189,30.178-35.802,68.999-33.397,119.904
		c1.517,32.093,8.84,59.089,20.409,82.101c22.844,45.438,57.625,78.916,105.757,99.264c23.802,10.062,53.295,17.12,86.507,15.538
		c31.857-1.517,59.462-8.678,82.333-20.177c44.823-22.538,80.149-57.312,99.728-105.293c9.902-24.271,17.389-52.31,15.77-86.276
		c-3.062-64.343-29.236-107.971-63.777-141.241c-17.091-16.462-37.671-30.465-61.923-40.586
		c-23.53-9.82-54.164-17.101-86.972-15.539C224.923,42.917,209.708,44.925,195.824,48.643z"/>
	<path fill="#FFFFFF" d="M227.134,186.637c7.348,4.866,14.865,9.565,21.801,14.843c-15.671,9.84-31.034,19.989-46.616,29.918
		c2.366,1.809,5.056,3.293,7.421,5.102c15.712-9.954,31.429-19.902,47.081-29.918c7.019,4.345,13.931,8.798,20.41,13.684
		c-15.683,9.906-30.842,20.336-46.385,30.381c2.303,1.873,5.126,3.224,7.653,4.871c16.065-9.833,31.73-20.066,47.543-30.149
		c0-10.978,0-21.956,0-32.934c11.597,0,23.192,0,34.789,0c0,21.878,0,43.757,0,65.634c9.817,0.541,20.642,0.078,30.847,0.231
		c0,10.282,0,20.564,0,30.847c-21.88,0-43.757,0-65.636,0c0-10.438,0-20.873,0-31.311c-19.285,11.717-39.045,24.965-58.444,37.34
		c-20.201-13.117-39.67-26.97-59.836-40.121c-5.841,18.516-19.716,32.446-42.674,34.092c-14.319,1.024-30.588-0.765-47.081,0
		c0-32.236,0-64.476,0-96.712c20.619,1.366,43.258-2.757,59.604,2.319c14.453,4.489,24.7,16.021,29.454,30.382
		C187.247,212.461,207.104,199.464,227.134,186.637z M111.172,223.513c0,11.596,0,23.192,0,34.788
		c8.287,0.041,14.589,0.522,19.481-3.245c7.277-5.606,8.743-19.5,2.319-26.905c-4.287-4.94-11.525-5.977-21.569-5.334
		C111.134,222.856,111.152,223.184,111.172,223.513z"/>
	<path fill="#FFFFFF" d="M360.722,192.435c11.596,0,23.191,0,34.787,0c0,21.956,0,43.911,0,65.866c10.205,0,20.41,0,30.615,0
		c0,10.282,0,20.564,0,30.847c-21.879,0-43.758,0-65.636,0c0-32.006,0-64.01,0-96.017
		C360.47,192.802,360.451,192.474,360.722,192.435z"/>
</g>
</svg>
