<?xml version="1.0" encoding="utf-8"?>
<!-- Generator: Adobe Illustrator 14.0.0, SVG Export Plug-In . SVG Version: 6.00 Build 43363)  -->
<!DOCTYPE svg PUBLIC "-//W3C//DTD SVG 1.0//EN" "http://www.w3.org/TR/2001/REC-SVG-20010904/DTD/svg10.dtd">
<svg version="1.0" id="レイヤー_1" xmlns="http://www.w3.org/2000/svg" xmlns:xlink="http://www.w3.org/1999/xlink" x="0px"
	 y="0px" width="156px" height="57px" viewBox="0 0 156 57" enable-background="new 0 0 156 57" xml:space="preserve">
<g>
	<path fill="#007BC2" d="M0.063,26.985c0,16.712,13.657,29.636,29.671,29.636c16.012,0,29.671-12.924,29.671-29.636
		c0-15.327-10.668-26.5-22.482-26.5c-2.686,0-5.329,0.58-7.189,1.345c-1.861-0.765-4.507-1.345-7.188-1.345
		C10.729,0.485,0.063,11.658,0.063,26.985 M35.02,19.291c0,3.246-2.143,5.804-5.285,5.804c-3.14,0-5.285-2.558-5.285-5.804
		c0-4.426,3.008-8.354,5.285-9.705C32.013,10.938,35.02,14.865,35.02,19.291z M7.358,26.843c0-11.534,8.323-19.415,14.864-19.122
		c-3.1,3.088-4.978,7.587-4.978,11.937c0,7.489,5.942,12.74,12.49,12.74c6.545,0,12.491-5.251,12.491-12.74
		c0-4.35-1.878-8.849-4.978-11.937c6.541-0.293,14.865,7.588,14.865,19.122c0,12.627-10.132,22.479-22.377,22.479
		C17.489,49.321,7.358,39.47,7.358,26.843z"/>
	<polyline fill="#231F20" points="86.961,12.657 86.961,18.524 90.238,18.524 90.238,29.313 81.436,12.657 71.277,12.657 
		71.277,18.524 74.553,18.524 74.553,36.475 71.277,36.475 71.277,42.339 84.713,42.339 84.713,36.475 81.436,36.475 81.436,25.685 
		90.238,42.339 97.121,42.339 97.121,18.524 100.396,18.524 100.396,12.657 86.961,12.657 	"/>
	<polyline fill="#231F20" points="128.312,24.057 128.312,12.656 102.474,12.656 102.474,24.057 108.34,24.057 108.34,18.523 
		111.497,18.523 111.497,36.474 107.212,36.474 107.212,42.335 123.575,42.335 123.575,36.474 119.289,36.474 119.289,18.523 
		122.448,18.523 122.448,24.057 128.312,24.057 	"/>
	<polyline fill="#231F20" points="156.151,24.057 156.151,12.656 130.316,12.656 130.316,24.057 136.178,24.057 136.178,18.523 
		139.336,18.523 139.336,36.474 135.052,36.474 135.052,42.335 151.411,42.335 151.411,36.474 147.129,36.474 147.129,18.523 
		150.285,18.523 150.285,24.057 156.151,24.057 	"/>
</g>
</svg>
