<?xml version="1.0" encoding="UTF-8" standalone="no"?>
<svg xmlns:sketch="http://www.bohemiancoding.com/sketch/ns" xmlns="http://www.w3.org/2000/svg" height="188px" width="164px" version="1.1" xmlns:xlink="http://www.w3.org/1999/xlink" viewBox="0 0 164 188"><!-- Generator: Sketch 3.4.2 (15855) - http://www.bohemiancoding.com/sketch -->
 <title>image-ubuntuopenstackinteroperabilitylab</title>
 <desc>Created with Sketch.</desc>
 <g id="Page-1" fill-rule="evenodd" sketch:type="MSPage" fill="none">
  <g id="image-ubuntuopenstackinteroperabilitylab" sketch:type="MSLayerGroup">
   <g id="Group" sketch:type="MSShapeGroup">
    <g id="Comp">
     <circle id="Oval" cy="106" cx="82" r="82" fill="#fff"/>
     <circle id="Oval" cy="106" cx="82" r="80" fill="#888"/>
     <path id="Shape" fill="#fff" d="m124.79 142.63l-29.791-40.41v-33.902l8.001-8.318h-42.001l8 8.318v33.902l-30.79 40.41c-2.762 4.61-0.629 8.37 4.736 8.37h77.105c5.37 0 7.5-3.76 4.74-8.37z"/>
     <path id="Shape" fill="#888" d="m51.986 143c-2.2 0-2.909-1.43-1.576-3.18l24.164-31.72c1.333-1.75 2.424-4.98 2.424-7.18v-13.92c0-2.2 1.8-4 4-4h2c2.2 0 4 1.8 4 4v13.85c0 2.2 1.068 5.45 2.373 7.22l23.369 31.71c1.31 1.77 0.58 3.22-1.62 3.22h-59.134z"/>
     <circle id="Oval" cy="43" cx="96" r="7" fill="#fff"/>
     <path id="Shape" fill="#888" d="m122 5.333c4.78 0 8.67 3.888 8.67 8.667s-3.89 8.667-8.67 8.667-8.67-3.888-8.67-8.667 3.89-8.667 8.67-8.667zm0-5.333c-7.73 0-14 6.268-14 14s6.27 14 14 14 14-6.268 14-14-6.27-14-14-14z"/>
    </g>
   </g>
  </g>
 </g>
</svg>
